<svg data-v-423bf9ae="" xmlns="http://www.w3.org/2000/svg" viewBox="0 0 614 90" class="iconLeftSlogan"><!----><!----><!----><g data-v-423bf9ae="" id="6273ca28-4018-47bd-afa0-02161f4e2c15" fill="black" transform="matrix(4.457651974651253,0,0,4.457651974651253,107.81574652946858,-17.78603213662572)"><path d="M0.49 9.50L0.49 9.50L0.49 9.50Q0.49 8.98 0.56 8.46L0.56 8.46L0.56 8.46Q0.64 7.94 0.81 7.39L0.81 7.39L0.81 7.39Q0.99 6.84 1.25 6.35L1.25 6.35L1.25 6.35Q1.52 5.87 1.93 5.42L1.93 5.42L1.93 5.42Q2.34 4.98 2.86 4.67L2.86 4.67L2.86 4.67Q3.38 4.35 4.10 4.17L4.10 4.17L4.10 4.17Q4.81 3.99 5.65 3.99L5.65 3.99L5.65 3.99Q6.36 3.99 7.04 4.16L7.04 4.16L7.04 4.16Q7.71 4.33 8.31 4.67L8.31 4.67L8.31 4.67Q8.90 5.02 9.33 5.60L9.33 5.60L9.33 5.60Q9.76 6.17 9.93 6.92L9.93 6.92L9.94 7.01L9.94 7.01Q9.94 7.22 9.69 7.28L9.69 7.28L7.90 7.90L7.90 7.90Q7.79 7.94 7.72 7.94L7.72 7.94L7.72 7.94Q7.55 7.94 7.57 7.79L7.57 7.79L7.59 7.58L7.60 7.33L7.60 7.33Q7.60 7.01 7.54 6.71L7.54 6.71L7.54 6.71Q7.49 6.41 7.33 6.11L7.33 6.11L7.33 6.11Q7.18 5.81 6.96 5.59L6.96 5.59L6.96 5.59Q6.73 5.37 6.36 5.23L6.36 5.23L6.36 5.23Q6.00 5.09 5.54 5.09L5.54 5.09L5.54 5.09Q5.06 5.09 4.65 5.26L4.65 5.26L4.65 5.26Q4.25 5.43 3.96 5.73L3.96 5.73L3.96 5.73Q3.68 6.02 3.47 6.40L3.47 6.40L3.47 6.40Q3.25 6.77 3.13 7.21L3.13 7.21L3.13 7.21Q3.01 7.65 2.95 8.07L2.95 8.07L2.95 8.07Q2.88 8.48 2.88 8.89L2.88 8.89L2.88 8.89Q2.88 10.28 3.20 11.29L3.20 11.29L3.20 11.29Q3.52 12.30 4.21 12.88L4.21 12.88L4.21 12.88Q4.90 13.47 5.92 13.47L5.92 13.47L5.92 13.47Q6.51 13.47 7.02 13.32L7.02 13.32L7.02 13.32Q7.53 13.18 7.88 12.96L7.88 12.96L7.88 12.96Q8.23 12.74 8.52 12.42L8.52 12.42L8.52 12.42Q8.81 12.10 8.98 11.82L8.98 11.82L8.98 11.82Q9.15 11.53 9.31 11.19L9.31 11.19L9.31 11.19Q9.39 11.01 9.55 11.01L9.55 11.01L9.55 11.01Q9.63 11.01 9.73 11.06L9.73 11.06L10.22 11.29L10.22 11.29Q10.34 11.34 10.39 11.40L10.39 11.40L10.39 11.40Q10.43 11.46 10.38 11.57L10.38 11.57L10.38 11.57Q10.19 12.04 9.93 12.47L9.93 12.47L9.93 12.47Q9.67 12.89 9.25 13.33L9.25 13.33L9.25 13.33Q8.84 13.76 8.35 14.07L8.35 14.07L8.35 14.07Q7.85 14.38 7.17 14.58L7.17 14.58L7.17 14.58Q6.48 14.78 5.70 14.78L5.70 14.78L5.70 14.78Q4.46 14.78 3.47 14.38L3.47 14.38L3.47 14.38Q2.47 13.98 1.83 13.27L1.83 13.27L1.83 13.27Q1.18 12.56 0.84 11.60L0.84 11.60L0.84 11.60Q0.49 10.64 0.49 9.50ZM11.03 11.07L11.03 11.07L11.03 11.07Q11.03 10.01 11.59 9.11L11.59 9.11L11.59 9.11Q12.15 8.20 13.12 7.77L13.12 7.77L13.12 7.77Q13.79 7.47 14.53 7.47L14.53 7.47L14.53 7.47Q15.59 7.47 16.51 8.07L16.51 8.07L16.51 8.07Q17.43 8.66 17.89 9.69L17.89 9.69L17.89 9.69Q18.22 10.41 18.22 11.22L18.22 11.22L18.22 11.22Q18.22 12.28 17.66 13.17L17.66 13.17L17.66 13.17Q17.10 14.07 16.12 14.51L16.12 14.51L16.12 14.51Q15.43 14.81 14.70 14.81L14.70 14.81L14.70 14.81Q13.64 14.81 12.72 14.22L12.72 14.22L12.72 14.22Q11.80 13.62 11.35 12.60L11.35 12.60L11.35 12.60Q11.03 11.87 11.03 11.07ZM12.69 10.19L12.69 10.19L12.69 10.19Q12.69 10.96 13.08 11.83L13.08 11.83L13.08 11.83Q13.45 12.63 13.99 13.16L13.99 13.16L13.99 13.16Q14.53 13.69 15.13 13.69L15.13 13.69L15.13 13.69Q15.41 13.69 15.70 13.57L15.70 13.57L15.70 13.57Q16.54 13.20 16.54 12.09L16.54 12.09L16.54 12.09Q16.54 11.33 16.15 10.46L16.15 10.46L16.15 10.46Q15.79 9.65 15.25 9.12L15.25 9.12L15.25 9.12Q14.70 8.59 14.10 8.59L14.10 8.59L14.10 8.59Q13.82 8.59 13.54 8.72L13.54 8.72L13.54 8.72Q12.69 9.08 12.69 10.19ZM18.37 8.28L18.37 8.28L18.37 7.85L18.37 7.85Q18.37 7.65 18.58 7.65L18.58 7.65L18.61 7.64L21.43 7.64L21.43 7.64Q21.64 7.64 21.64 7.85L21.64 7.85L21.64 11.93L21.64 11.93Q21.64 11.97 21.64 12.04L21.64 12.04L21.64 12.04Q21.64 12.26 21.64 12.37L21.64 12.37L21.64 12.37Q21.64 12.48 21.66 12.67L21.66 12.67L21.66 12.67Q21.68 12.87 21.71 12.97L21.71 12.97L21.71 12.97Q21.75 13.07 21.82 13.21L21.82 13.21L21.82 13.21Q21.90 13.34 22.00 13.42L22.00 13.42L22.00 13.42Q22.11 13.49 22.27 13.54L22.27 13.54L22.27 13.54Q22.44 13.59 22.65 13.59L22.65 13.59L22.65 13.59Q23.15 13.59 23.66 13.22L23.66 13.22L23.66 13.22Q24.17 12.86 24.35 12.40L24.35 12.40L24.35 9.82L24.35 9.82Q24.35 9.22 24.08 8.85L24.08 8.85L24.08 8.85Q23.82 8.48 23.32 8.48L23.32 8.48L23.29 8.48L23.29 8.48Q23.08 8.48 23.08 8.28L23.08 8.28L23.08 7.85L23.08 7.85Q23.08 7.66 23.30 7.64L23.30 7.64L26.11 7.64L26.11 7.64Q26.32 7.64 26.32 7.85L26.32 7.85L26.32 11.81L26.32 11.81Q26.32 12.15 26.34 12.37L26.34 12.37L26.34 12.37Q26.37 12.60 26.44 12.85L26.44 12.85L26.44 12.85Q26.52 13.10 26.69 13.25L26.69 13.25L26.69 13.25Q26.87 13.39 27.15 13.42L27.15 13.42L27.15 13.42Q27.32 13.44 27.31 13.60L27.31 13.60L27.31 14.08L27.31 14.08Q27.31 14.26 27.10 14.26L27.10 14.26L27.10 14.26Q26.46 14.26 25.94 14.35L25.94 14.35L25.94 14.35Q25.42 14.44 25.20 14.53L25.20 14.53L25.20 14.53Q24.97 14.61 24.53 14.80L24.53 14.80L24.53 14.80Q24.48 14.83 24.42 14.83L24.42 14.83L24.38 14.83L24.38 14.83Q24.36 14.83 24.36 14.78L24.36 14.78L24.58 13.02L24.58 13.02Q24.42 13.34 24.20 13.63L24.20 13.63L24.20 13.63Q23.97 13.93 23.66 14.21L23.66 14.21L23.66 14.21Q23.34 14.49 22.93 14.66L22.93 14.66L22.93 14.66Q22.51 14.83 22.05 14.83L22.05 14.83L22.05 14.83Q21.47 14.83 21.04 14.67L21.04 14.67L21.04 14.67Q20.60 14.51 20.35 14.27L20.35 14.27L20.35 14.27Q20.09 14.02 19.94 13.65L19.94 13.65L19.94 13.65Q19.78 13.29 19.73 12.93L19.73 12.93L19.73 12.93Q19.67 12.56 19.67 12.13L19.67 12.13L19.67 9.82L19.67 9.82Q19.67 9.22 19.41 8.85L19.41 8.85L19.41 8.85Q19.14 8.48 18.64 8.48L18.64 8.48L18.58 8.48L18.58 8.48Q18.37 8.48 18.37 8.28ZM27.82 14.43L27.82 14.43L27.82 14.01L27.82 14.01Q27.82 13.80 28.03 13.80L28.03 13.80L28.06 13.80L28.06 13.80Q28.55 13.80 28.82 13.43L28.82 13.43L28.82 13.43Q29.08 13.06 29.08 12.47L29.08 12.47L29.08 10.71L29.08 10.71Q29.08 10.37 29.06 10.14L29.06 10.14L29.06 10.14Q29.03 9.92 28.96 9.67L28.96 9.67L28.96 9.67Q28.88 9.41 28.70 9.27L28.70 9.27L28.70 9.27Q28.53 9.13 28.25 9.10L28.25 9.10L28.25 9.10Q28.08 9.08 28.09 8.92L28.09 8.92L28.09 8.44L28.09 8.44Q28.09 8.29 28.29 8.26L28.29 8.26L28.29 8.26Q29.18 8.11 29.94 7.81L29.94 7.81L29.94 7.81Q30.70 7.50 31.06 7.24L31.06 7.24L31.06 7.24Q31.11 7.21 31.12 7.21L31.12 7.21L31.16 7.21L31.16 7.21Q31.17 7.21 31.17 7.23L31.17 7.23L30.84 9.11L30.84 9.11Q31.22 8.32 31.88 7.89L31.88 7.89L31.88 7.89Q32.54 7.46 33.30 7.46L33.30 7.46L33.30 7.46Q34.00 7.46 34.44 7.84L34.44 7.84L34.44 7.84Q34.89 8.22 34.89 8.91L34.89 8.91L34.89 8.91Q34.89 9.28 34.82 9.49L34.82 9.49L34.82 9.49Q34.75 9.70 34.52 9.80L34.52 9.80L33.21 10.34L33.21 10.34Q33.15 10.36 33.09 10.36L33.09 10.36L33.09 10.36Q32.96 10.36 32.96 10.23L32.96 10.23L32.96 10.23Q32.96 10.16 32.98 10.10L32.98 10.10L32.98 10.10Q33.11 9.79 33.11 9.41L33.11 9.41L33.11 9.41Q33.11 9.04 32.93 8.86L32.93 8.86L32.93 8.86Q32.75 8.68 32.45 8.68L32.45 8.68L32.45 8.68Q32.01 8.68 31.62 9.06L31.62 9.06L31.62 9.06Q31.23 9.44 31.05 9.89L31.05 9.89L31.05 12.47L31.05 12.47Q31.05 13.06 31.32 13.43L31.32 13.43L31.32 13.43Q31.58 13.80 32.07 13.80L32.07 13.80L32.10 13.80L32.10 13.80Q32.31 13.80 32.31 14.01L32.31 14.01L32.31 14.43L32.31 14.43Q32.31 14.64 32.10 14.64L32.10 14.64L28.03 14.64L28.03 14.64Q27.82 14.64 27.82 14.43ZM34.97 12.33L34.97 12.33L34.97 12.33Q34.97 12.22 35.09 12.15L35.09 12.15L35.52 11.90L35.52 11.90Q35.57 11.87 35.64 11.87L35.64 11.87L35.64 11.87Q35.75 11.87 35.81 11.98L35.81 11.98L35.81 11.98Q37.04 13.87 38.98 13.87L38.98 13.87L38.98 13.87Q40.33 13.87 40.33 13.07L40.33 13.07L40.33 13.07Q40.33 12.95 40.29 12.85L40.29 12.85L40.29 12.85Q40.25 12.74 40.16 12.65L40.16 12.65L40.16 12.65Q40.07 12.56 39.99 12.49L39.99 12.49L39.99 12.49Q39.91 12.41 39.75 12.34L39.75 12.34L39.75 12.34Q39.59 12.26 39.48 12.22L39.48 12.22L39.48 12.22Q39.38 12.17 39.17 12.10L39.17 12.10L39.17 12.10Q38.96 12.04 38.85 12.00L38.85 12.00L38.85 12.00Q38.75 11.97 38.52 11.90L38.52 11.90L38.52 11.90Q38.29 11.84 38.20 11.81L38.20 11.81L38.20 11.81Q37.53 11.61 37.04 11.39L37.04 11.39L37.04 11.39Q36.56 11.16 36.27 10.93L36.27 10.93L36.27 10.93Q35.98 10.71 35.81 10.44L35.81 10.44L35.81 10.44Q35.64 10.17 35.58 9.93L35.58 9.93L35.58 9.93Q35.53 9.69 35.53 9.39L35.53 9.39L35.53 9.39Q35.53 8.54 36.19 8.00L36.19 8.00L36.19 8.00Q36.85 7.47 37.93 7.47L37.93 7.47L37.93 7.47Q38.51 7.47 39.01 7.62L39.01 7.62L39.01 7.62Q39.52 7.77 39.79 7.93L39.79 7.93L39.79 7.93Q39.83 7.95 39.85 7.95L39.85 7.95L39.85 7.95Q39.95 7.95 39.87 7.66L39.87 7.66L39.87 7.66Q39.85 7.59 39.85 7.56L39.85 7.56L39.85 7.56Q39.85 7.42 40.03 7.42L40.03 7.42L40.39 7.42L40.39 7.42Q40.57 7.42 40.63 7.58L40.63 7.58L41.34 9.36L41.34 9.36Q41.37 9.45 41.37 9.50L41.37 9.50L41.37 9.50Q41.37 9.59 41.26 9.65L41.26 9.65L40.92 9.83L40.92 9.83Q40.85 9.86 40.81 9.86L40.81 9.86L40.81 9.86Q40.72 9.86 40.63 9.75L40.63 9.75L40.63 9.75Q40.04 9.02 39.37 8.67L39.37 8.67L39.37 8.67Q38.69 8.32 38.12 8.32L38.12 8.32L38.12 8.32Q37.70 8.32 37.42 8.49L37.42 8.49L37.42 8.49Q37.15 8.66 37.15 9.03L37.15 9.03L37.15 9.03Q37.15 9.25 37.27 9.42L37.27 9.42L37.27 9.42Q37.40 9.60 37.65 9.72L37.65 9.72L37.65 9.72Q37.90 9.84 38.13 9.92L38.13 9.92L38.13 9.92Q38.36 10.00 38.71 10.09L38.71 10.09L38.71 10.09Q39.88 10.39 40.35 10.59L40.35 10.59L40.35 10.59Q41.71 11.16 41.86 12.26L41.86 12.26L41.86 12.26Q41.87 12.39 41.87 12.53L41.87 12.53L41.87 12.53Q41.87 13.53 41.07 14.17L41.07 14.17L41.07 14.17Q40.26 14.81 38.92 14.81L38.92 14.81L38.92 14.81Q38.04 14.81 37.30 14.44L37.30 14.44L37.30 14.44Q37.21 14.41 37.17 14.41L37.17 14.41L37.17 14.41Q37.04 14.41 37.11 14.62L37.11 14.62L37.11 14.62Q37.13 14.68 37.13 14.73L37.13 14.73L37.13 14.73Q37.13 14.85 36.96 14.84L36.96 14.84L36.46 14.84L36.46 14.84Q36.30 14.84 36.22 14.70L36.22 14.70L35.01 12.44L35.01 12.44Q34.97 12.37 34.97 12.33ZM42.43 11.08L42.43 11.08L42.43 11.08Q42.43 10.33 42.62 9.71L42.62 9.71L42.62 9.71Q42.81 9.10 43.13 8.69L43.13 8.69L43.13 8.69Q43.45 8.29 43.88 8.01L43.88 8.01L43.88 8.01Q44.32 7.73 44.79 7.61L44.79 7.61L44.79 7.61Q45.25 7.49 45.77 7.49L45.77 7.49L45.77 7.49Q46.30 7.49 46.77 7.67L46.77 7.67L46.77 7.67Q47.25 7.85 47.58 8.13L47.58 8.13L47.58 8.13Q47.92 8.42 48.16 8.78L48.16 8.78L48.16 8.78Q48.41 9.14 48.52 9.50L48.52 9.50L48.52 9.50Q48.64 9.86 48.64 10.19L48.64 10.19L48.64 10.19Q48.64 10.31 48.53 10.36L48.53 10.36L44.47 12.14L44.47 12.14Q44.73 12.79 45.27 13.22L45.27 13.22L45.27 13.22Q45.81 13.64 46.57 13.64L46.57 13.64L46.57 13.64Q47.04 13.64 47.52 13.38L47.52 13.38L47.52 13.38Q48.00 13.13 48.35 12.61L48.35 12.61L48.35 12.61Q48.39 12.55 48.47 12.55L48.47 12.55L48.47 12.55Q48.56 12.55 49.03 12.82L49.03 12.82L49.03 12.82Q49.08 12.86 49.08 12.93L49.08 12.93L49.08 12.93Q49.08 13.02 48.99 13.18L48.99 13.18L48.99 13.18Q48.11 14.81 46.19 14.81L46.19 14.81L46.19 14.81Q45.06 14.81 44.19 14.30L44.19 14.30L44.19 14.30Q43.33 13.79 42.88 12.94L42.88 12.94L42.88 12.94Q42.43 12.10 42.43 11.08ZM44.51 9.05L44.51 9.05L44.51 9.05Q44.17 9.50 44.17 10.20L44.17 10.20L44.17 10.20Q44.17 10.90 44.30 11.27L44.30 11.27L46.55 10.13L46.55 10.13Q46.55 9.47 46.23 9.03L46.23 9.03L46.23 9.03Q45.91 8.59 45.42 8.59L45.42 8.59L45.42 8.59Q44.86 8.59 44.51 9.05ZM49.71 9.50L49.71 9.50L49.71 9.50Q49.71 8.98 49.78 8.46L49.78 8.46L49.78 8.46Q49.85 7.94 50.03 7.39L50.03 7.39L50.03 7.39Q50.21 6.84 50.47 6.35L50.47 6.35L50.47 6.35Q50.74 5.87 51.15 5.42L51.15 5.42L51.15 5.42Q51.56 4.98 52.08 4.67L52.08 4.67L52.08 4.67Q52.60 4.35 53.32 4.17L53.32 4.17L53.32 4.17Q54.03 3.99 54.87 3.99L54.87 3.99L54.87 3.99Q55.58 3.99 56.26 4.16L56.26 4.16L56.26 4.16Q56.93 4.33 57.52 4.67L57.52 4.67L57.52 4.67Q58.12 5.02 58.55 5.60L58.55 5.60L58.55 5.60Q58.98 6.17 59.14 6.92L59.14 6.92L59.16 7.01L59.16 7.01Q59.16 7.22 58.91 7.28L58.91 7.28L57.12 7.90L57.12 7.90Q57.00 7.94 56.94 7.94L56.94 7.94L56.94 7.94Q56.77 7.94 56.79 7.79L56.79 7.79L56.81 7.58L56.82 7.33L56.82 7.33Q56.82 7.01 56.76 6.71L56.76 6.71L56.76 6.71Q56.70 6.41 56.55 6.11L56.55 6.11L56.55 6.11Q56.40 5.81 56.17 5.59L56.17 5.59L56.17 5.59Q55.95 5.37 55.58 5.23L55.58 5.23L55.58 5.23Q55.21 5.09 54.76 5.09L54.76 5.09L54.76 5.09Q54.28 5.09 53.87 5.26L53.87 5.26L53.87 5.26Q53.46 5.43 53.18 5.73L53.18 5.73L53.18 5.73Q52.90 6.02 52.68 6.40L52.68 6.40L52.68 6.40Q52.47 6.77 52.35 7.21L52.35 7.21L52.35 7.21Q52.23 7.65 52.17 8.07L52.17 8.07L52.17 8.07Q52.10 8.48 52.10 8.89L52.10 8.89L52.10 8.89Q52.10 10.28 52.42 11.29L52.42 11.29L52.42 11.29Q52.74 12.30 53.43 12.88L53.43 12.88L53.43 12.88Q54.12 13.47 55.14 13.47L55.14 13.47L55.14 13.47Q55.73 13.47 56.24 13.32L56.24 13.32L56.24 13.32Q56.75 13.18 57.10 12.96L57.10 12.96L57.10 12.96Q57.45 12.74 57.74 12.42L57.74 12.42L57.74 12.42Q58.03 12.10 58.20 11.82L58.20 11.82L58.20 11.82Q58.37 11.53 58.53 11.19L58.53 11.19L58.53 11.19Q58.61 11.01 58.77 11.01L58.77 11.01L58.77 11.01Q58.85 11.01 58.95 11.06L58.95 11.06L59.44 11.29L59.44 11.29Q59.56 11.34 59.61 11.40L59.61 11.40L59.61 11.40Q59.65 11.46 59.60 11.57L59.60 11.57L59.60 11.57Q59.41 12.04 59.15 12.47L59.15 12.47L59.15 12.47Q58.88 12.89 58.47 13.33L58.47 13.33L58.47 13.33Q58.06 13.76 57.57 14.07L57.57 14.07L57.57 14.07Q57.07 14.38 56.39 14.58L56.39 14.58L56.39 14.58Q55.70 14.78 54.92 14.78L54.92 14.78L54.92 14.78Q53.68 14.78 52.69 14.38L52.69 14.38L52.69 14.38Q51.69 13.98 51.05 13.27L51.05 13.27L51.05 13.27Q50.40 12.56 50.06 11.60L50.06 11.60L50.06 11.60Q49.71 10.64 49.71 9.50ZM60.25 11.07L60.25 11.07L60.25 11.07Q60.25 10.01 60.81 9.11L60.81 9.11L60.81 9.11Q61.37 8.20 62.34 7.77L62.34 7.77L62.34 7.77Q63.01 7.47 63.75 7.47L63.75 7.47L63.75 7.47Q64.81 7.47 65.73 8.07L65.73 8.07L65.73 8.07Q66.65 8.66 67.11 9.69L67.11 9.69L67.11 9.69Q67.44 10.41 67.44 11.22L67.44 11.22L67.44 11.22Q67.44 12.28 66.88 13.17L66.88 13.17L66.88 13.17Q66.32 14.07 65.34 14.51L65.34 14.51L65.34 14.51Q64.65 14.81 63.92 14.81L63.92 14.81L63.92 14.81Q62.86 14.81 61.94 14.22L61.94 14.22L61.94 14.22Q61.02 13.62 60.57 12.60L60.57 12.60L60.57 12.60Q60.25 11.87 60.25 11.07ZM61.91 10.19L61.91 10.19L61.91 10.19Q61.91 10.96 62.30 11.83L62.30 11.83L62.30 11.83Q62.67 12.63 63.21 13.16L63.21 13.16L63.21 13.16Q63.75 13.69 64.35 13.69L64.35 13.69L64.35 13.69Q64.63 13.69 64.91 13.57L64.91 13.57L64.91 13.57Q65.76 13.20 65.76 12.09L65.76 12.09L65.76 12.09Q65.76 11.33 65.37 10.46L65.37 10.46L65.37 10.46Q65.01 9.65 64.47 9.12L64.47 9.12L64.47 9.12Q63.92 8.59 63.31 8.59L63.31 8.59L63.31 8.59Q63.04 8.59 62.75 8.72L62.75 8.72L62.75 8.72Q61.91 9.08 61.91 10.19ZM67.93 14.43L67.93 14.43L67.93 14.01L67.93 14.01Q67.93 13.80 68.13 13.80L68.13 13.80L68.17 13.80L68.17 13.80Q68.66 13.80 68.92 13.43L68.92 13.43L68.92 13.43Q69.18 13.06 69.18 12.47L69.18 12.47L69.18 10.71L69.18 10.71Q69.18 10.37 69.16 10.14L69.16 10.14L69.16 10.14Q69.13 9.92 69.06 9.67L69.06 9.67L69.06 9.67Q68.98 9.41 68.80 9.27L68.80 9.27L68.80 9.27Q68.63 9.13 68.35 9.10L68.35 9.10L68.35 9.10Q68.17 9.08 68.19 8.92L68.19 8.92L68.19 8.44L68.19 8.44Q68.19 8.29 68.39 8.26L68.39 8.26L68.39 8.26Q69.29 8.11 70.04 7.81L70.04 7.81L70.04 7.81Q70.80 7.51 71.16 7.24L71.16 7.24L71.16 7.24Q71.22 7.21 71.22 7.21L71.22 7.21L71.26 7.21L71.26 7.21Q71.27 7.21 71.27 7.23L71.27 7.23L71.03 9.06L71.03 9.06Q72.03 7.46 73.45 7.46L73.45 7.46L73.45 7.46Q75.25 7.46 75.67 8.83L75.67 8.83L75.67 8.83Q76.73 7.46 78.24 7.46L78.24 7.46L78.24 7.46Q78.83 7.46 79.26 7.62L79.26 7.62L79.26 7.62Q79.69 7.77 79.95 8.02L79.95 8.02L79.95 8.02Q80.21 8.27 80.36 8.64L80.36 8.64L80.36 8.64Q80.51 9.00 80.57 9.37L80.57 9.37L80.57 9.37Q80.62 9.73 80.62 10.17L80.62 10.17L80.62 12.47L80.62 12.47Q80.62 13.06 80.89 13.43L80.89 13.43L80.89 13.43Q81.16 13.80 81.66 13.80L81.66 13.80L81.79 13.80L81.79 13.80Q82.00 13.80 82.00 14.01L82.00 14.01L82.00 14.43L82.00 14.43Q82.00 14.64 81.79 14.64L81.79 14.64L77.85 14.64L77.85 14.64Q77.64 14.64 77.64 14.43L77.64 14.43L77.64 14.01L77.64 14.01Q77.64 13.80 77.85 13.80L77.85 13.80L77.92 13.80L77.92 13.80Q78.35 13.80 78.50 13.49L78.50 13.49L78.50 13.49Q78.65 13.18 78.65 12.47L78.65 12.47L78.65 10.36L78.65 10.36Q78.65 10.32 78.65 10.23L78.65 10.23L78.65 10.23Q78.65 9.99 78.65 9.86L78.65 9.86L78.65 9.86Q78.65 9.73 78.62 9.51L78.62 9.51L78.62 9.51Q78.60 9.30 78.53 9.18L78.53 9.18L78.53 9.18Q78.47 9.06 78.36 8.94L78.36 8.94L78.36 8.94Q78.26 8.81 78.08 8.75L78.08 8.75L78.08 8.75Q77.90 8.70 77.65 8.70L77.65 8.70L77.65 8.70Q77.08 8.70 76.61 9.05L76.61 9.05L76.61 9.05Q76.15 9.41 75.83 10.02L75.83 10.02L75.83 12.47L75.83 12.47Q75.83 13.21 76.06 13.50L76.06 13.50L76.06 13.50Q76.28 13.80 76.72 13.80L76.72 13.80L76.83 13.80L76.83 13.80Q77.03 13.80 77.03 14.01L77.03 14.01L77.03 14.43L77.03 14.43Q77.03 14.64 76.83 14.64L76.83 14.64L73.03 14.64L73.03 14.64Q72.82 14.64 72.82 14.43L72.82 14.43L72.82 14.01L72.82 14.01Q72.82 13.80 73.03 13.80L73.03 13.80L73.12 13.80L73.12 13.80Q73.46 13.80 73.66 13.49L73.66 13.49L73.66 13.49Q73.86 13.19 73.86 12.52L73.86 12.52L73.86 12.52Q73.86 12.50 73.86 12.47L73.86 12.47L73.86 10.36L73.86 10.36Q73.86 10.32 73.86 10.23L73.86 10.23L73.86 10.23Q73.86 9.95 73.86 9.81L73.86 9.81L73.86 9.81Q73.86 9.68 73.83 9.46L73.83 9.46L73.83 9.46Q73.80 9.24 73.74 9.14L73.74 9.14L73.74 9.14Q73.68 9.03 73.57 8.91L73.57 8.91L73.57 8.91Q73.46 8.79 73.28 8.74L73.28 8.74L73.28 8.74Q73.10 8.70 72.85 8.70L72.85 8.70L72.85 8.70Q72.34 8.70 71.84 9.06L71.84 9.06L71.84 9.06Q71.33 9.43 71.15 9.89L71.15 9.89L71.15 12.47L71.15 12.47Q71.15 13.05 71.39 13.43L71.39 13.43L71.39 13.43Q71.63 13.80 72.04 13.80L72.04 13.80L72.08 13.80L72.08 13.80Q72.28 13.80 72.28 14.01L72.28 14.01L72.28 14.43L72.28 14.43Q72.28 14.64 72.08 14.64L72.08 14.64L68.13 14.64L68.13 14.64Q67.93 14.64 67.93 14.43ZM81.87 17.23L81.87 16.81L81.87 16.81Q81.87 16.60 82.09 16.60L82.09 16.60L82.09 16.60Q82.59 16.60 82.85 16.24L82.85 16.24L82.85 16.24Q83.10 15.89 83.10 15.33L83.10 15.33L83.10 15.33Q83.10 15.30 83.10 15.27L83.10 15.27L83.11 15.00L83.11 10.46L83.11 10.46Q83.11 10.19 83.10 10.01L83.10 10.01L83.10 10.01Q83.09 9.82 83.04 9.60L83.04 9.60L83.04 9.60Q83.00 9.37 82.91 9.23L82.91 9.23L82.91 9.23Q82.82 9.09 82.67 8.98L82.67 8.98L82.67 8.98Q82.51 8.87 82.28 8.85L82.28 8.85L82.28 8.85Q82.11 8.83 82.12 8.67L82.12 8.67L82.12 8.20L82.12 8.20Q82.12 8.01 82.33 8.01L82.33 8.01L82.33 8.01Q82.97 8.01 83.49 7.92L83.49 7.92L83.49 7.92Q84.01 7.83 84.23 7.75L84.23 7.75L84.23 7.75Q84.46 7.66 84.90 7.47L84.90 7.47L84.90 7.47Q84.95 7.44 85.01 7.44L85.01 7.44L85.05 7.44L85.05 7.44Q85.07 7.44 85.06 7.49L85.06 7.49L84.91 8.74L84.91 8.74Q84.96 8.60 85.05 8.46L85.05 8.46L85.05 8.46Q85.13 8.31 85.31 8.12L85.31 8.12L85.31 8.12Q85.49 7.93 85.71 7.79L85.71 7.79L85.71 7.79Q85.93 7.65 86.28 7.55L86.28 7.55L86.28 7.55Q86.63 7.44 87.04 7.44L87.04 7.44L87.04 7.44Q87.44 7.44 87.85 7.56L87.85 7.56L87.85 7.56Q88.27 7.68 88.68 7.97L88.68 7.97L88.68 7.97Q89.10 8.25 89.42 8.66L89.42 8.66L89.42 8.66Q89.74 9.08 89.94 9.72L89.94 9.72L89.94 9.72Q90.15 10.36 90.15 11.14L90.15 11.14L90.15 11.14Q90.15 12.07 89.88 12.80L89.88 12.80L89.88 12.80Q89.61 13.52 89.14 13.95L89.14 13.95L89.14 13.95Q88.68 14.38 88.11 14.60L88.11 14.60L88.11 14.60Q87.53 14.81 86.88 14.81L86.88 14.81L86.88 14.81Q85.81 14.81 85.06 14.16L85.06 14.16L85.06 15.27L85.06 15.27Q85.06 15.87 85.33 16.24L85.33 16.24L85.33 16.24Q85.59 16.60 86.09 16.60L86.09 16.60L86.09 16.60Q86.30 16.60 86.30 16.81L86.30 16.81L86.30 17.23L86.30 17.23Q86.30 17.45 86.09 17.45L86.09 17.45L82.08 17.45L82.08 17.45Q81.87 17.45 81.87 17.23L81.87 17.23ZM85.06 9.60L85.06 12.15L85.06 12.15Q85.14 12.87 85.56 13.38L85.56 13.38L85.56 13.38Q85.97 13.90 86.63 13.90L86.63 13.90L86.63 13.90Q87.01 13.90 87.32 13.77L87.32 13.77L87.32 13.77Q87.63 13.64 87.82 13.42L87.82 13.42L87.82 13.42Q88.01 13.21 88.13 12.90L88.13 12.90L88.13 12.90Q88.25 12.60 88.30 12.28L88.30 12.28L88.30 12.28Q88.35 11.96 88.35 11.59L88.35 11.59L88.35 11.59Q88.35 10.26 87.81 9.47L87.81 9.47L87.81 9.47Q87.28 8.68 86.41 8.68L86.41 8.68L86.41 8.68Q86.12 8.68 85.87 8.78L85.87 8.78L85.87 8.78Q85.63 8.87 85.48 9.01L85.48 9.01L85.48 9.01Q85.34 9.15 85.24 9.28L85.24 9.28L85.24 9.28Q85.13 9.41 85.09 9.51L85.09 9.51L85.06 9.60ZM90.98 11.13L90.98 11.13L90.98 11.13Q90.98 10.19 91.25 9.47L91.25 9.47L91.25 9.47Q91.52 8.75 91.98 8.32L91.98 8.32L91.98 8.32Q92.45 7.90 93.02 7.68L93.02 7.68L93.02 7.68Q93.60 7.46 94.25 7.46L94.25 7.46L94.25 7.46Q95.63 7.46 96.52 8.28L96.52 8.28L96.52 8.28Q96.69 8.21 96.83 8.15L96.83 8.15L96.83 8.15Q96.97 8.08 97.09 8.01L97.09 8.01L97.09 8.01Q97.22 7.94 97.30 7.90L97.30 7.90L97.30 7.90Q97.38 7.85 97.49 7.78L97.49 7.78L97.49 7.78Q97.60 7.71 97.64 7.69L97.64 7.69L97.64 7.69Q97.68 7.66 97.79 7.58L97.79 7.58L97.79 7.58Q97.90 7.50 97.91 7.49L97.91 7.49L97.91 7.49Q97.95 7.46 97.97 7.46L97.97 7.46L98.01 7.46L98.01 7.46Q98.02 7.46 98.02 7.49L98.02 7.49L98.02 12.05L98.02 12.05Q98.03 12.34 98.06 12.54L98.06 12.54L98.06 12.54Q98.10 12.75 98.18 12.95L98.18 12.95L98.18 12.95Q98.27 13.15 98.43 13.27L98.43 13.27L98.43 13.27Q98.60 13.39 98.85 13.42L98.85 13.42L98.85 13.42Q99.03 13.44 99.01 13.60L99.01 13.60L99.01 14.08L99.01 14.08Q99.01 14.26 98.81 14.26L98.81 14.26L98.81 14.26Q98.16 14.26 97.65 14.35L97.65 14.35L97.65 14.35Q97.13 14.44 96.89 14.53L96.89 14.53L96.89 14.53Q96.65 14.62 96.23 14.80L96.23 14.80L96.23 14.80Q96.17 14.83 96.11 14.83L96.11 14.83L96.08 14.83L96.08 14.83Q96.06 14.83 96.06 14.78L96.06 14.78L96.22 13.54L96.22 13.54Q96.15 13.72 96.02 13.90L96.02 13.90L96.02 13.90Q95.89 14.09 95.65 14.31L95.65 14.31L95.65 14.31Q95.40 14.54 95.00 14.68L95.00 14.68L95.00 14.68Q94.59 14.83 94.08 14.83L94.08 14.83L94.08 14.83Q93.69 14.83 93.27 14.71L93.27 14.71L93.27 14.71Q92.86 14.59 92.44 14.30L92.44 14.30L92.44 14.30Q92.03 14.01 91.70 13.60L91.70 13.60L91.70 13.60Q91.38 13.19 91.18 12.55L91.18 12.55L91.18 12.55Q90.98 11.91 90.98 11.13ZM92.78 10.68L92.78 10.68L92.78 10.68Q92.78 12.01 93.32 12.80L93.32 12.80L93.32 12.80Q93.85 13.59 94.72 13.59L94.72 13.59L94.72 13.59Q95.01 13.59 95.26 13.49L95.26 13.49L95.26 13.49Q95.50 13.40 95.64 13.27L95.64 13.27L95.64 13.27Q95.79 13.13 95.89 13.00L95.89 13.00L95.89 13.00Q95.99 12.86 96.03 12.76L96.03 12.76L96.07 12.67L96.07 9.86L96.07 9.86Q96.02 9.61 95.93 9.39L95.93 9.39L95.93 9.39Q95.83 9.16 95.66 8.92L95.66 8.92L95.66 8.92Q95.49 8.68 95.19 8.54L95.19 8.54L95.19 8.54Q94.90 8.39 94.51 8.39L94.51 8.39L94.51 8.39Q94.12 8.39 93.81 8.52L93.81 8.52L93.81 8.52Q93.50 8.65 93.31 8.87L93.31 8.87L93.31 8.87Q93.13 9.08 93.00 9.38L93.00 9.38L93.00 9.38Q92.88 9.68 92.83 9.99L92.83 9.99L92.83 9.99Q92.78 10.31 92.78 10.68ZM99.26 12.33L99.26 12.33L99.26 12.33Q99.26 12.22 99.38 12.15L99.38 12.15L99.81 11.90L99.81 11.90Q99.86 11.87 99.93 11.87L99.93 11.87L99.93 11.87Q100.04 11.87 100.10 11.98L100.10 11.98L100.10 11.98Q101.34 13.87 103.27 13.87L103.27 13.87L103.27 13.87Q104.62 13.87 104.62 13.07L104.62 13.07L104.62 13.07Q104.62 12.95 104.58 12.85L104.58 12.85L104.58 12.85Q104.54 12.74 104.45 12.65L104.45 12.65L104.45 12.65Q104.36 12.56 104.28 12.49L104.28 12.49L104.28 12.49Q104.20 12.41 104.04 12.34L104.04 12.34L104.04 12.34Q103.88 12.26 103.77 12.22L103.77 12.22L103.77 12.22Q103.67 12.17 103.46 12.10L103.46 12.10L103.46 12.10Q103.25 12.04 103.14 12.00L103.14 12.00L103.14 12.00Q103.04 11.97 102.81 11.90L102.81 11.90L102.81 11.90Q102.58 11.84 102.49 11.81L102.49 11.81L102.49 11.81Q101.82 11.61 101.34 11.39L101.34 11.39L101.34 11.39Q100.85 11.16 100.56 10.93L100.56 10.93L100.56 10.93Q100.28 10.71 100.11 10.44L100.11 10.44L100.11 10.44Q99.93 10.17 99.88 9.93L99.88 9.93L99.88 9.93Q99.82 9.69 99.82 9.39L99.82 9.39L99.82 9.39Q99.82 8.54 100.48 8.00L100.48 8.00L100.48 8.00Q101.14 7.47 102.22 7.47L102.22 7.47L102.22 7.47Q102.80 7.47 103.30 7.62L103.30 7.62L103.30 7.62Q103.81 7.77 104.08 7.93L104.08 7.93L104.08 7.93Q104.12 7.95 104.14 7.95L104.14 7.95L104.14 7.95Q104.24 7.95 104.16 7.66L104.16 7.66L104.16 7.66Q104.15 7.59 104.15 7.56L104.15 7.56L104.15 7.56Q104.15 7.42 104.32 7.42L104.32 7.42L104.69 7.42L104.69 7.42Q104.86 7.42 104.92 7.58L104.92 7.58L105.63 9.36L105.63 9.36Q105.66 9.45 105.66 9.50L105.66 9.50L105.66 9.50Q105.66 9.59 105.55 9.65L105.55 9.65L105.21 9.83L105.21 9.83Q105.14 9.86 105.10 9.86L105.10 9.86L105.10 9.86Q105.01 9.86 104.92 9.75L104.92 9.75L104.92 9.75Q104.34 9.02 103.66 8.67L103.66 8.67L103.66 8.67Q102.98 8.32 102.42 8.32L102.42 8.32L102.42 8.32Q101.99 8.32 101.72 8.49L101.72 8.49L101.72 8.49Q101.44 8.66 101.44 9.03L101.44 9.03L101.44 9.03Q101.44 9.25 101.56 9.42L101.56 9.42L101.56 9.42Q101.69 9.60 101.94 9.72L101.94 9.72L101.94 9.72Q102.19 9.84 102.42 9.92L102.42 9.92L102.42 9.92Q102.65 10.00 103.00 10.09L103.00 10.09L103.00 10.09Q104.17 10.39 104.64 10.59L104.64 10.59L104.64 10.59Q106.00 11.16 106.15 12.26L106.15 12.26L106.15 12.26Q106.16 12.39 106.16 12.53L106.16 12.53L106.16 12.53Q106.16 13.53 105.36 14.17L105.36 14.17L105.36 14.17Q104.56 14.81 103.21 14.81L103.21 14.81L103.21 14.81Q102.33 14.81 101.59 14.44L101.59 14.44L101.59 14.44Q101.51 14.41 101.47 14.41L101.47 14.41L101.47 14.41Q101.34 14.41 101.40 14.62L101.40 14.62L101.40 14.62Q101.42 14.68 101.42 14.73L101.42 14.73L101.42 14.73Q101.42 14.85 101.25 14.84L101.25 14.84L100.75 14.84L100.75 14.84Q100.59 14.84 100.51 14.70L100.51 14.70L99.30 12.44L99.30 12.44Q99.26 12.37 99.26 12.33ZM106.61 12.33L106.61 12.33L106.61 12.33Q106.61 12.22 106.73 12.15L106.73 12.15L107.16 11.90L107.16 11.90Q107.21 11.87 107.28 11.87L107.28 11.87L107.28 11.87Q107.39 11.87 107.45 11.98L107.45 11.98L107.45 11.98Q108.68 13.87 110.62 13.87L110.62 13.87L110.62 13.87Q111.97 13.87 111.97 13.07L111.97 13.07L111.97 13.07Q111.97 12.95 111.93 12.85L111.93 12.85L111.93 12.85Q111.89 12.74 111.80 12.65L111.80 12.65L111.80 12.65Q111.71 12.56 111.63 12.49L111.63 12.49L111.63 12.49Q111.55 12.41 111.39 12.34L111.39 12.34L111.39 12.34Q111.23 12.26 111.12 12.22L111.12 12.22L111.12 12.22Q111.02 12.17 110.81 12.10L110.81 12.10L110.81 12.10Q110.60 12.04 110.49 12.00L110.49 12.00L110.49 12.00Q110.39 11.97 110.16 11.90L110.16 11.90L110.16 11.90Q109.93 11.84 109.84 11.81L109.84 11.81L109.84 11.81Q109.17 11.61 108.68 11.39L108.68 11.39L108.68 11.39Q108.20 11.16 107.91 10.93L107.91 10.93L107.91 10.93Q107.63 10.71 107.45 10.44L107.45 10.44L107.45 10.44Q107.28 10.17 107.23 9.93L107.23 9.93L107.23 9.93Q107.17 9.69 107.17 9.39L107.17 9.39L107.17 9.39Q107.17 8.54 107.83 8.00L107.83 8.00L107.83 8.00Q108.49 7.47 109.57 7.47L109.57 7.47L109.57 7.47Q110.15 7.47 110.65 7.62L110.65 7.62L110.65 7.62Q111.16 7.77 111.43 7.93L111.43 7.93L111.43 7.93Q111.47 7.95 111.49 7.95L111.49 7.95L111.49 7.95Q111.59 7.95 111.51 7.66L111.51 7.66L111.51 7.66Q111.49 7.59 111.49 7.56L111.49 7.56L111.49 7.56Q111.49 7.42 111.67 7.42L111.67 7.42L112.03 7.42L112.03 7.42Q112.21 7.42 112.27 7.58L112.27 7.58L112.98 9.36L112.98 9.36Q113.01 9.45 113.01 9.50L113.01 9.50L113.01 9.50Q113.01 9.59 112.90 9.65L112.90 9.65L112.56 9.83L112.56 9.83Q112.49 9.86 112.45 9.86L112.45 9.86L112.45 9.86Q112.36 9.86 112.27 9.75L112.27 9.75L112.27 9.75Q111.69 9.02 111.01 8.67L111.01 8.67L111.01 8.67Q110.33 8.32 109.76 8.32L109.76 8.32L109.76 8.32Q109.34 8.32 109.06 8.49L109.06 8.49L109.06 8.49Q108.79 8.66 108.79 9.03L108.79 9.03L108.79 9.03Q108.79 9.25 108.91 9.42L108.91 9.42L108.91 9.42Q109.04 9.60 109.29 9.72L109.29 9.72L109.29 9.72Q109.54 9.84 109.77 9.92L109.77 9.92L109.77 9.92Q110.00 10.00 110.35 10.09L110.35 10.09L110.35 10.09Q111.52 10.39 111.99 10.59L111.99 10.59L111.99 10.59Q113.35 11.16 113.50 12.26L113.50 12.26L113.50 12.26Q113.51 12.39 113.51 12.53L113.51 12.53L113.51 12.53Q113.51 13.53 112.71 14.17L112.71 14.17L112.71 14.17Q111.90 14.81 110.56 14.81L110.56 14.81L110.56 14.81Q109.68 14.81 108.94 14.44L108.94 14.44L108.94 14.44Q108.86 14.41 108.81 14.41L108.81 14.41L108.81 14.41Q108.68 14.41 108.75 14.62L108.75 14.62L108.75 14.62Q108.77 14.68 108.77 14.73L108.77 14.73L108.77 14.73Q108.77 14.85 108.60 14.84L108.60 14.84L108.10 14.84L108.10 14.84Q107.94 14.84 107.86 14.70L107.86 14.70L106.65 12.44L106.65 12.44Q106.61 12.37 106.61 12.33Z"></path></g><!----><g data-v-423bf9ae="" id="14211d8b-59c7-4285-9e21-93cdc6857747" transform="matrix(2.8125,0,0,2.8125,0,0)" stroke="none" fill="black"><path d="M0 16.024L15.976 32 32 15.976 16.024 0 0 16.024zm15.989 7.323l-7.336-7.336 14.694-.022-7.358 7.358z"></path></g><!----><g data-v-423bf9ae="" id="87155b85-fb66-4c1f-8d4e-a79cd06ec41f" fill="black" transform="matrix(0.9502370693788416,0,0,0.9502370693788416,108.49862328820043,55.44836469380068)"><path d="M7.28 9.34L7.28 9.34L7.28 9.34Q7.73 9.34 7.99 9.59L7.99 9.59L7.99 9.59Q8.25 9.84 8.25 10.29L8.25 10.29L8.25 10.29Q8.25 10.40 8.23 10.52L8.23 10.52L8.23 10.52Q8.22 10.64 8.18 10.72L8.18 10.72L8.18 10.72Q7.99 10.70 7.77 10.68L7.77 10.68L7.77 10.68Q7.55 10.65 7.24 10.65L7.24 10.65L7.24 10.65Q6.61 10.65 5.98 10.77L5.98 10.77L5.98 10.77Q5.35 10.88 4.77 10.95L4.77 10.95L4.77 10.95Q4.14 12.43 3.74 13.73L3.74 13.73L3.74 13.73Q3.33 15.04 3.11 16.31L3.11 16.31L3.11 16.31Q2.63 16.20 2.27 15.90L2.27 15.90L2.27 15.90Q1.90 15.61 1.58 15.08L1.58 15.08L1.58 15.08Q1.68 14.85 1.82 14.54L1.82 14.54L1.82 14.54Q1.96 14.22 2.16 13.74L2.16 13.74L2.16 13.74Q2.35 13.26 2.63 12.56L2.63 12.56L2.63 12.56Q2.90 11.87 3.28 10.91L3.28 10.91L3.28 10.91Q2.69 10.71 2.51 10.22L2.51 10.22L2.51 10.22Q2.58 10.15 2.90 10.06L2.90 10.06L2.90 10.06Q3.22 9.97 3.68 9.86L3.68 9.86L3.68 9.86Q3.89 9.31 4.05 8.88L4.05 8.88L4.05 8.88Q4.20 8.46 4.33 8.07L4.33 8.07L4.33 8.07Q4.45 7.69 4.56 7.32L4.56 7.32L4.56 7.32Q4.66 6.94 4.75 6.52L4.75 6.52L4.68 6.52L4.68 6.52Q4.14 6.52 3.81 6.27L3.81 6.27L3.81 6.27Q3.49 6.02 3.49 5.61L3.49 5.61L3.49 5.61Q3.49 5.50 3.52 5.35L3.52 5.35L3.52 5.35Q3.56 5.19 3.61 5.08L3.61 5.08L3.61 5.08Q3.88 5.12 4.14 5.14L4.14 5.14L4.14 5.14Q4.40 5.15 4.82 5.15L4.82 5.15L4.82 5.15Q5.70 5.15 6.47 5.10L6.47 5.10L6.47 5.10Q7.24 5.05 7.86 5.00L7.86 5.00L7.86 5.00Q8.48 4.94 8.93 4.89L8.93 4.89L8.93 4.89Q9.38 4.84 9.62 4.84L9.62 4.84L9.62 4.84Q9.94 4.84 10.19 5.18L10.19 5.18L10.19 5.18Q10.44 5.52 10.58 6.13L10.58 6.13L10.58 6.13Q10.14 6.09 9.86 6.08L9.86 6.08L9.86 6.08Q9.59 6.06 9.38 6.06L9.38 6.06L9.38 6.06Q8.67 6.06 8.07 6.13L8.07 6.13L8.07 6.13Q7.48 6.19 6.94 6.27L6.94 6.27L6.94 6.27Q6.86 6.40 6.75 6.59L6.75 6.59L6.75 6.59Q6.65 6.79 6.48 7.15L6.48 7.15L6.48 7.15Q6.31 7.50 6.05 8.08L6.05 8.08L6.05 8.08Q5.80 8.65 5.40 9.53L5.40 9.53L5.40 9.53Q5.95 9.45 6.45 9.39L6.45 9.39L6.45 9.39Q6.94 9.34 7.28 9.34ZM16.55 14.38L16.55 14.38L16.55 14.38Q16.55 13.87 16.71 13.07L16.71 13.07L16.71 13.07Q16.87 12.26 17.13 11.33L17.13 11.33L17.13 11.33Q17.39 10.40 17.72 9.43L17.72 9.43L17.72 9.43Q18.06 8.46 18.41 7.60L18.41 7.60L18.41 7.60Q18.76 6.75 19.10 6.10L19.10 6.10L19.10 6.10Q19.43 5.46 19.70 5.18L19.70 5.18L19.70 5.18Q19.84 5.19 20.07 5.29L20.07 5.29L20.07 5.29Q20.30 5.38 20.54 5.50L20.54 5.50L20.54 5.50Q20.78 5.63 20.97 5.78L20.97 5.78L20.97 5.78Q21.17 5.92 21.22 6.05L21.22 6.05L21.22 6.05Q20.82 6.41 20.42 7.15L20.42 7.15L20.42 7.15Q20.02 7.88 19.65 8.82L19.65 8.82L19.65 8.82Q19.28 9.76 18.96 10.80L18.96 10.80L18.96 10.80Q18.63 11.84 18.40 12.82L18.40 12.82L18.40 12.82Q18.16 13.80 18.02 14.64L18.02 14.64L18.02 14.64Q17.89 15.48 17.89 16.00L17.89 16.00L17.89 16.00Q17.89 16.24 17.93 16.30L17.93 16.30L17.93 16.30Q17.63 16.28 17.49 16.19L17.49 16.19L17.49 16.19Q17.35 16.10 17.27 16.00L17.27 16.00L17.27 16.00Q17.19 15.89 17.13 15.79L17.13 15.79L17.13 15.79Q17.07 15.68 16.94 15.62L16.94 15.62L16.94 15.62Q16.84 15.58 16.77 15.43L16.77 15.43L16.77 15.43Q16.70 15.27 16.65 15.09L16.65 15.09L16.65 15.09Q16.60 14.90 16.58 14.70L16.58 14.70L16.58 14.70Q16.55 14.50 16.55 14.38ZM28.78 16.24L28.78 16.24L28.78 16.24Q27.99 16.00 27.71 15.79L27.71 15.79L27.71 15.79Q27.43 15.57 27.43 15.19L27.43 15.19L27.43 15.19Q27.43 14.77 27.62 14.01L27.62 14.01L27.62 14.01Q27.82 13.24 28.13 12.31L28.13 12.31L28.13 12.31Q28.45 11.37 28.85 10.35L28.85 10.35L28.85 10.35Q29.26 9.32 29.68 8.39L29.68 8.39L29.68 8.39Q30.10 7.45 30.50 6.67L30.50 6.67L30.50 6.67Q30.90 5.89 31.21 5.46L31.21 5.46L31.11 4.87L31.11 4.87Q31.30 4.87 31.65 4.97L31.65 4.97L31.65 4.97Q32.00 5.07 32.36 5.21L32.36 5.21L32.36 5.21Q32.72 5.35 32.99 5.49L32.99 5.49L32.99 5.49Q33.26 5.64 33.29 5.74L33.29 5.74L33.29 5.74Q33.22 6.08 33.18 6.76L33.18 6.76L33.18 6.76Q33.14 7.43 33.14 8.20L33.14 8.20L33.14 8.20Q33.14 9.73 33.26 11.19L33.26 11.19L33.26 11.19Q33.38 12.66 33.81 14.17L33.81 14.17L33.81 14.17Q34.03 13.05 34.29 11.94L34.29 11.94L34.29 11.94Q34.55 10.82 34.83 9.81L34.83 9.81L34.83 9.81Q35.11 8.79 35.39 7.92L35.39 7.92L35.39 7.92Q35.67 7.06 35.93 6.40L35.93 6.40L35.93 6.40Q36.19 5.75 36.41 5.38L36.41 5.38L36.41 5.38Q36.64 5.01 36.82 4.98L36.82 4.98L36.82 4.98Q36.97 5.01 37.16 5.10L37.16 5.10L37.16 5.10Q37.34 5.19 37.51 5.32L37.51 5.32L37.51 5.32Q37.67 5.45 37.81 5.60L37.81 5.60L37.81 5.60Q37.95 5.75 38.04 5.91L38.04 5.91L38.04 5.91Q37.59 6.09 37.15 6.76L37.15 6.76L37.15 6.76Q36.71 7.43 36.31 8.39L36.31 8.39L36.31 8.39Q35.91 9.35 35.57 10.47L35.57 10.47L35.57 10.47Q35.22 11.59 34.97 12.68L34.97 12.68L34.97 12.68Q34.71 13.76 34.56 14.69L34.56 14.69L34.56 14.69Q34.41 15.61 34.40 16.17L34.40 16.17L34.40 16.17Q34.40 16.20 34.41 16.21L34.41 16.21L34.41 16.21Q34.37 16.23 34.32 16.23L34.32 16.23L34.32 16.23Q34.27 16.23 34.23 16.23L34.23 16.23L34.23 16.23Q33.59 16.23 33.09 16.07L33.09 16.07L33.09 16.07Q32.59 15.90 32.44 15.61L32.44 15.61L32.44 15.61Q32.14 14.43 31.95 13.34L31.95 13.34L31.95 13.34Q31.75 12.25 31.62 11.16L31.62 11.16L31.62 11.16Q31.49 10.07 31.41 8.95L31.41 8.95L31.41 8.95Q31.33 7.84 31.29 6.62L31.29 6.62L31.29 6.62Q31.02 7.04 30.73 7.72L30.73 7.72L30.73 7.72Q30.44 8.40 30.16 9.21L30.16 9.21L30.16 9.21Q29.88 10.02 29.62 10.92L29.62 10.92L29.62 10.92Q29.36 11.82 29.16 12.67L29.16 12.67L29.16 12.67Q28.97 13.52 28.85 14.29L28.85 14.29L28.85 14.29Q28.74 15.05 28.74 15.61L28.74 15.61L28.74 15.61Q28.74 15.90 28.75 16.03L28.75 16.03L28.75 16.03Q28.76 16.16 28.78 16.24ZM45.04 14.45L45.04 14.45L45.04 14.45Q45.25 13.99 45.54 13.26L45.54 13.26L45.54 13.26Q45.84 12.53 46.16 11.68L46.16 11.68L46.16 11.68Q46.48 10.84 46.82 9.95L46.82 9.95L46.82 9.95Q47.15 9.06 47.45 8.26L47.45 8.26L47.45 8.26Q47.74 7.46 47.96 6.83L47.96 6.83L47.96 6.83Q48.17 6.20 48.27 5.87L48.27 5.87L48.27 5.87Q47.39 6.23 46.76 6.97L46.76 6.97L46.76 6.97Q46.13 7.71 45.81 8.83L45.81 8.83L45.81 8.83Q45.49 8.72 45.22 8.43L45.22 8.43L45.22 8.43Q44.95 8.15 44.87 7.71L44.87 7.71L44.87 7.71Q45.01 7.07 45.40 6.54L45.40 6.54L45.40 6.54Q45.78 6.01 46.37 5.63L46.37 5.63L46.37 5.63Q46.96 5.25 47.73 5.05L47.73 5.05L47.73 5.05Q48.50 4.84 49.38 4.84L49.38 4.84L49.38 4.84Q50.50 4.84 51.44 5.17L51.44 5.17L51.44 5.17Q52.37 5.50 53.05 6.09L53.05 6.09L53.05 6.09Q53.72 6.68 54.10 7.50L54.10 7.50L54.10 7.50Q54.47 8.33 54.47 9.34L54.47 9.34L54.47 9.34Q54.47 10.71 53.97 11.96L53.97 11.96L53.97 11.96Q53.47 13.20 52.61 14.15L52.61 14.15L52.61 14.15Q51.74 15.11 50.61 15.67L50.61 15.67L50.61 15.67Q49.48 16.24 48.23 16.24L48.23 16.24L48.23 16.24Q47.08 16.24 46.26 15.79L46.26 15.79L46.26 15.79Q45.44 15.33 45.04 14.45ZM49.98 5.54L49.98 5.54L49.98 5.54Q49.28 5.54 48.65 5.74L48.65 5.74L48.65 5.74Q49.27 5.96 49.67 6.21L49.67 6.21L49.67 6.21Q50.08 6.45 50.23 6.59L50.23 6.59L50.23 6.59Q50.12 6.75 49.90 7.14L49.90 7.14L49.90 7.14Q49.69 7.53 49.40 8.09L49.40 8.09L49.40 8.09Q49.11 8.65 48.79 9.32L48.79 9.32L48.79 9.32Q48.47 9.98 48.16 10.68L48.16 10.68L48.16 10.68Q47.36 12.46 47.01 13.48L47.01 13.48L47.01 13.48Q46.65 14.50 46.65 14.90L46.65 14.90L46.65 14.90Q46.84 14.97 47.12 14.99L47.12 14.99L47.12 14.99Q47.40 15.02 47.73 15.02L47.73 15.02L47.73 15.02Q48.86 15.02 49.88 14.50L49.88 14.50L49.88 14.50Q50.89 13.97 51.65 13.09L51.65 13.09L51.65 13.09Q52.42 12.21 52.86 11.04L52.86 11.04L52.86 11.04Q53.30 9.87 53.30 8.58L53.30 8.58L53.30 8.58Q53.30 7.14 52.40 6.34L52.40 6.34L52.40 6.34Q51.51 5.54 49.98 5.54ZM75.10 6.69L75.10 6.69L75.10 6.69Q74.54 6.69 74.23 6.38L74.23 6.38L74.23 6.38Q73.93 6.06 73.93 5.61L73.93 5.61L73.93 5.61Q73.93 5.50 73.97 5.35L73.97 5.35L73.97 5.35Q74.00 5.19 74.06 5.08L74.06 5.08L74.06 5.08Q74.24 5.17 74.60 5.20L74.60 5.20L74.60 5.20Q74.96 5.24 75.43 5.24L75.43 5.24L75.43 5.24Q76.15 5.24 77.05 5.17L77.05 5.17L77.05 5.17Q77.95 5.11 78.78 5.04L78.78 5.04L78.78 5.04Q79.60 4.97 80.23 4.91L80.23 4.91L80.23 4.91Q80.86 4.84 81.05 4.84L81.05 4.84L81.05 4.84Q81.56 4.84 81.80 5.23L81.80 5.23L81.80 5.23Q82.03 5.61 82.14 6.26L82.14 6.26L82.14 6.26Q81.77 6.23 81.42 6.21L81.42 6.21L81.42 6.21Q81.06 6.19 80.81 6.19L80.81 6.19L80.81 6.19Q80.36 6.19 79.91 6.22L79.91 6.22L79.91 6.22Q79.45 6.24 78.99 6.30L78.99 6.30L78.99 6.30Q78.79 6.71 78.55 7.26L78.55 7.26L78.55 7.26Q78.32 7.81 78.08 8.41L78.08 8.41L78.08 8.41Q77.85 9.02 77.64 9.61L77.64 9.61L77.64 9.61Q77.43 10.21 77.28 10.68L77.28 10.68L77.28 10.68Q76.97 11.61 76.74 12.39L76.74 12.39L76.74 12.39Q76.51 13.17 76.33 13.85L76.33 13.85L76.33 13.85Q76.16 14.53 76.03 15.15L76.03 15.15L76.03 15.15Q75.91 15.76 75.81 16.35L75.81 16.35L75.81 16.35Q74.87 16.21 74.24 15.18L74.24 15.18L74.24 15.18Q74.35 14.74 74.52 14.23L74.52 14.23L74.52 14.23Q74.68 13.72 74.89 13.07L74.89 13.07L74.89 13.07Q75.11 12.42 75.40 11.59L75.40 11.59L75.40 11.59Q75.70 10.77 76.08 9.72L76.08 9.72L76.08 9.72Q76.22 9.32 76.37 8.90L76.37 8.90L76.37 8.90Q76.52 8.47 76.67 8.05L76.67 8.05L76.67 8.05Q76.82 7.63 76.94 7.24L76.94 7.24L76.94 7.24Q77.06 6.85 77.14 6.52L77.14 6.52L77.14 6.52Q76.55 6.59 76.03 6.64L76.03 6.64L76.03 6.64Q75.50 6.69 75.10 6.69ZM93.02 14.36L93.02 14.36L93.02 14.36Q93.02 13.78 93.21 12.85L93.21 12.85L93.21 12.85Q93.41 11.93 93.73 10.88L93.73 10.88L93.73 10.88Q92.81 10.95 91.88 11.06L91.88 11.06L91.88 11.06Q90.94 11.17 90.26 11.19L90.26 11.19L90.26 11.19Q89.63 12.66 89.26 13.89L89.26 13.89L89.26 13.89Q88.89 15.13 88.68 16.31L88.68 16.31L88.68 16.31Q88.14 16.18 87.79 15.87L87.79 15.87L87.79 15.87Q87.44 15.55 87.15 15.08L87.15 15.08L87.15 15.08Q87.26 14.85 87.41 14.50L87.41 14.50L87.41 14.50Q87.56 14.15 87.76 13.66L87.76 13.66L87.76 13.66Q87.96 13.16 88.22 12.50L88.22 12.50L88.22 12.50Q88.48 11.83 88.82 10.95L88.82 10.95L88.82 10.95Q88.35 10.75 88.20 10.40L88.20 10.40L88.20 10.40Q88.27 10.35 88.52 10.28L88.52 10.28L88.52 10.28Q88.76 10.22 89.12 10.15L89.12 10.15L89.31 9.70L89.31 9.70Q89.60 8.95 89.79 8.43L89.79 8.43L89.79 8.43Q89.98 7.91 90.11 7.41L90.11 7.41L90.11 7.41Q90.24 6.92 90.36 6.31L90.36 6.31L90.36 6.31Q90.48 5.71 90.65 4.79L90.65 4.79L90.65 4.79Q91.24 4.90 91.72 5.31L91.72 5.31L91.72 5.31Q92.20 5.71 92.55 6.29L92.55 6.29L92.55 6.29Q92.43 6.45 92.25 6.79L92.25 6.79L92.25 6.79Q92.06 7.13 91.85 7.59L91.85 7.59L91.85 7.59Q91.63 8.06 91.38 8.64L91.38 8.64L91.38 8.64Q91.13 9.23 90.83 9.87L90.83 9.87L90.83 9.87Q91.70 9.76 92.59 9.66L92.59 9.66L92.59 9.66Q93.48 9.56 94.16 9.52L94.16 9.52L94.16 9.52Q94.42 8.79 94.69 8.10L94.69 8.10L94.69 8.10Q94.96 7.41 95.23 6.83L95.23 6.83L95.23 6.83Q95.49 6.26 95.74 5.82L95.74 5.82L95.74 5.82Q95.98 5.39 96.18 5.18L96.18 5.18L96.18 5.18Q96.32 5.19 96.55 5.29L96.55 5.29L96.55 5.29Q96.78 5.38 97.02 5.50L97.02 5.50L97.02 5.50Q97.26 5.63 97.45 5.78L97.45 5.78L97.45 5.78Q97.65 5.92 97.72 6.05L97.72 6.05L97.72 6.05Q97.47 6.29 97.22 6.66L97.22 6.66L97.22 6.66Q96.96 7.04 96.72 7.53L96.72 7.53L96.72 7.53Q96.47 8.02 96.24 8.60L96.24 8.60L96.24 8.60Q96.00 9.17 95.79 9.79L95.79 9.79L95.79 9.79Q96.07 10.04 96.07 10.42L96.07 10.42L96.07 10.42Q96.07 10.68 95.96 10.91L95.96 10.91L95.96 10.91Q95.83 10.88 95.70 10.87L95.70 10.87L95.70 10.87Q95.58 10.86 95.44 10.85L95.44 10.85L95.44 10.85Q95.20 11.61 95.00 12.35L95.00 12.35L95.00 12.35Q94.81 13.09 94.67 13.76L94.67 13.76L94.67 13.76Q94.54 14.43 94.47 14.99L94.47 14.99L94.47 14.99Q94.39 15.55 94.39 15.93L94.39 15.93L94.39 15.93Q94.39 16.07 94.39 16.16L94.39 16.16L94.39 16.16Q94.40 16.24 94.42 16.30L94.42 16.30L94.42 16.30Q94.11 16.28 93.97 16.19L93.97 16.19L93.97 16.19Q93.83 16.10 93.76 16.00L93.76 16.00L93.76 16.00Q93.69 15.89 93.63 15.79L93.63 15.79L93.63 15.79Q93.58 15.68 93.45 15.62L93.45 15.62L93.45 15.62Q93.35 15.58 93.27 15.43L93.27 15.43L93.27 15.43Q93.18 15.27 93.13 15.08L93.13 15.08L93.13 15.08Q93.07 14.88 93.04 14.69L93.04 14.69L93.04 14.69Q93.02 14.49 93.02 14.36ZM109.79 9.21L109.79 9.21L109.79 9.21Q110.25 9.21 110.51 9.46L110.51 9.46L110.51 9.46Q110.77 9.72 110.77 10.16L110.77 10.16L110.77 10.16Q110.77 10.28 110.75 10.39L110.75 10.39L110.75 10.39Q110.73 10.51 110.70 10.60L110.70 10.60L110.70 10.60Q110.52 10.57 110.29 10.55L110.29 10.55L110.29 10.55Q110.07 10.53 109.76 10.53L109.76 10.53L109.76 10.53Q109.16 10.53 108.54 10.63L108.54 10.63L108.54 10.63Q107.93 10.74 107.37 10.81L107.37 10.81L107.37 10.81Q107.04 11.55 106.78 12.24L106.78 12.24L106.78 12.24Q106.51 12.94 106.32 13.51L106.32 13.51L106.32 13.51Q106.13 14.08 106.03 14.50L106.03 14.50L106.03 14.50Q105.92 14.92 105.91 15.13L105.91 15.13L105.91 15.13Q107.04 14.90 108.20 14.73L108.20 14.73L108.20 14.73Q109.35 14.56 110.63 14.48L110.63 14.48L110.63 14.48Q110.78 14.71 110.89 14.99L110.89 14.99L110.89 14.99Q110.99 15.27 110.99 15.60L110.99 15.60L110.99 15.60Q110.99 15.68 110.99 15.78L110.99 15.78L110.99 15.78Q110.99 15.88 110.96 15.97L110.96 15.97L110.96 15.97Q110.57 15.96 110.14 15.95L110.14 15.95L110.14 15.95Q109.70 15.95 109.00 15.95L109.00 15.95L109.00 15.95Q108.54 15.95 108.13 15.97L108.13 15.97L108.13 15.97Q107.72 15.99 107.30 16.03L107.30 16.03L107.30 16.03Q106.88 16.07 106.41 16.14L106.41 16.14L106.41 16.14Q105.94 16.21 105.35 16.31L105.35 16.31L105.35 16.31Q104.71 16.06 104.10 15.08L104.10 15.08L104.10 15.08Q104.34 14.57 104.77 13.54L104.77 13.54L104.77 13.54Q105.20 12.52 105.85 10.79L105.85 10.79L105.85 10.79Q105.22 10.60 105.03 10.09L105.03 10.09L105.03 10.09Q105.10 10.02 105.43 9.92L105.43 9.92L105.43 9.92Q105.77 9.81 106.26 9.70L106.26 9.70L106.26 9.70Q106.47 9.16 106.62 8.75L106.62 8.75L106.62 8.75Q106.76 8.34 106.88 7.99L106.88 7.99L106.88 7.99Q106.99 7.63 107.08 7.29L107.08 7.29L107.08 7.29Q107.17 6.94 107.25 6.54L107.25 6.54L107.25 6.54Q106.76 6.51 106.48 6.27L106.48 6.27L106.48 6.27Q106.20 6.02 106.20 5.63L106.20 5.63L106.20 5.63Q106.20 5.52 106.24 5.36L106.24 5.36L106.24 5.36Q106.27 5.21 106.32 5.10L106.32 5.10L106.32 5.10Q106.60 5.14 106.86 5.15L106.86 5.15L106.86 5.15Q107.11 5.17 107.53 5.17L107.53 5.17L107.53 5.17Q108.42 5.17 109.19 5.12L109.19 5.12L109.19 5.12Q109.96 5.07 110.58 5.01L110.58 5.01L110.58 5.01Q111.20 4.96 111.65 4.91L111.65 4.91L111.65 4.91Q112.10 4.86 112.34 4.86L112.34 4.86L112.34 4.86Q112.66 4.86 112.91 5.19L112.91 5.19L112.91 5.19Q113.16 5.53 113.29 6.15L113.29 6.15L113.29 6.15Q112.85 6.10 112.58 6.09L112.58 6.09L112.58 6.09Q112.31 6.08 112.10 6.08L112.10 6.08L112.10 6.08Q111.33 6.08 110.69 6.15L110.69 6.15L110.69 6.15Q110.05 6.23 109.47 6.31L109.47 6.31L109.47 6.31Q109.38 6.44 109.28 6.64L109.28 6.64L109.28 6.64Q109.17 6.83 109.00 7.18L109.00 7.18L109.00 7.18Q108.84 7.53 108.59 8.06L108.59 8.06L108.59 8.06Q108.35 8.60 108.00 9.39L108.00 9.39L108.00 9.39Q108.53 9.31 109.00 9.26L109.00 9.26L109.00 9.26Q109.47 9.21 109.79 9.21ZM139.38 7.46L139.38 7.46L139.38 7.46Q139.38 8.13 139.08 8.73L139.08 8.73L139.08 8.73Q138.78 9.32 138.25 9.79L138.25 9.79L138.25 9.79Q137.72 10.26 137.00 10.58L137.00 10.58L137.00 10.58Q136.29 10.91 135.45 11.02L135.45 11.02L135.45 11.02Q135.66 11.65 135.96 12.31L135.96 12.31L135.96 12.31Q136.26 12.98 136.61 13.59L136.61 13.59L136.61 13.59Q136.96 14.21 137.34 14.73L137.34 14.73L137.34 14.73Q137.72 15.25 138.08 15.58L138.08 15.58L138.08 15.58Q138.01 15.72 137.88 15.86L137.88 15.86L137.88 15.86Q137.75 16.00 137.57 16.12L137.57 16.12L137.57 16.12Q137.40 16.24 137.21 16.32L137.21 16.32L137.21 16.32Q137.02 16.39 136.85 16.39L136.85 16.39L136.85 16.39Q136.54 16.39 136.26 16.10L136.26 16.10L136.26 16.10Q135.98 15.81 135.69 15.17L135.69 15.17L135.69 15.17Q135.41 14.53 135.09 13.52L135.09 13.52L135.09 13.52Q134.78 12.50 134.40 11.07L134.40 11.07L134.40 11.07Q134.25 11.07 134.09 11.07L134.09 11.07L134.09 11.07Q133.94 11.07 133.85 11.05L133.85 11.05L133.85 11.05Q133.76 10.99 133.64 10.85L133.64 10.85L133.64 10.85Q133.27 11.66 132.97 12.38L132.97 12.38L132.97 12.38Q132.68 13.09 132.45 13.76L132.45 13.76L132.45 13.76Q132.22 14.42 132.04 15.04L132.04 15.04L132.04 15.04Q131.87 15.67 131.74 16.31L131.74 16.31L131.74 16.31Q131.26 16.20 130.91 15.90L130.91 15.90L130.91 15.90Q130.56 15.61 130.26 15.08L130.26 15.08L130.26 15.08Q130.31 14.95 130.38 14.83L130.38 14.83L130.38 14.83Q130.44 14.71 130.54 14.50L130.54 14.50L130.54 14.50Q130.63 14.28 130.78 13.94L130.78 13.94L130.78 13.94Q130.93 13.61 131.17 13.05L131.17 13.05L131.17 13.05Q131.42 12.49 131.76 11.68L131.76 11.68L131.76 11.68Q132.10 10.86 132.59 9.70L132.59 9.70L132.59 9.70Q132.82 9.18 132.98 8.79L132.98 8.79L132.98 8.79Q133.14 8.40 133.27 8.04L133.27 8.04L133.27 8.04Q133.39 7.69 133.50 7.33L133.50 7.33L133.50 7.33Q133.60 6.97 133.71 6.51L133.71 6.51L133.71 6.51Q133.07 6.73 132.52 7.01L132.52 7.01L132.52 7.01Q131.96 7.28 131.60 7.59L131.60 7.59L131.60 7.59Q131.47 7.50 131.34 7.34L131.34 7.34L131.34 7.34Q131.21 7.17 131.10 6.96L131.10 6.96L131.10 6.96Q130.98 6.76 130.90 6.55L130.90 6.55L130.90 6.55Q130.82 6.34 130.80 6.17L130.80 6.17L130.80 6.17Q131.22 5.89 131.83 5.66L131.83 5.66L131.83 5.66Q132.44 5.42 133.13 5.24L133.13 5.24L133.13 5.24Q133.81 5.07 134.53 4.97L134.53 4.97L134.53 4.97Q135.24 4.87 135.86 4.87L135.86 4.87L135.86 4.87Q137.54 4.87 138.46 5.56L138.46 5.56L138.46 5.56Q139.38 6.26 139.38 7.46ZM135.80 6.02L135.97 6.29L135.97 6.29Q135.87 6.41 135.66 6.79L135.66 6.79L135.66 6.79Q135.45 7.17 135.18 7.69L135.18 7.69L135.18 7.69Q134.90 8.22 134.60 8.83L134.60 8.83L134.60 8.83Q134.30 9.45 134.02 10.05L134.02 10.05L134.02 10.05Q135.07 10.05 135.95 9.86L135.95 9.86L135.95 9.86Q136.84 9.66 137.48 9.30L137.48 9.30L137.48 9.30Q138.12 8.95 138.48 8.46L138.48 8.46L138.48 8.46Q138.84 7.98 138.84 7.39L138.84 7.39L138.84 7.39Q138.84 6.69 138.33 6.32L138.33 6.32L138.33 6.32Q137.83 5.95 136.78 5.95L136.78 5.95L136.78 5.95Q136.54 5.95 136.30 5.97L136.30 5.97L136.30 5.97Q136.07 5.99 135.80 6.02L135.80 6.02ZM146.96 14.38L146.96 14.38L146.96 14.38Q146.96 13.87 147.12 13.07L147.12 13.07L147.12 13.07Q147.28 12.26 147.54 11.33L147.54 11.33L147.54 11.33Q147.80 10.40 148.13 9.43L148.13 9.43L148.13 9.43Q148.47 8.46 148.82 7.60L148.82 7.60L148.82 7.60Q149.17 6.75 149.51 6.10L149.51 6.10L149.51 6.10Q149.84 5.46 150.11 5.18L150.11 5.18L150.11 5.18Q150.25 5.19 150.48 5.29L150.48 5.29L150.48 5.29Q150.71 5.38 150.95 5.50L150.95 5.50L150.95 5.50Q151.19 5.63 151.38 5.78L151.38 5.78L151.38 5.78Q151.58 5.92 151.63 6.05L151.63 6.05L151.63 6.05Q151.23 6.41 150.83 7.15L150.83 7.15L150.83 7.15Q150.43 7.88 150.06 8.82L150.06 8.82L150.06 8.82Q149.69 9.76 149.37 10.80L149.37 10.80L149.37 10.80Q149.04 11.84 148.81 12.82L148.81 12.82L148.81 12.82Q148.57 13.80 148.44 14.64L148.44 14.64L148.44 14.64Q148.30 15.48 148.30 16.00L148.30 16.00L148.30 16.00Q148.30 16.24 148.34 16.30L148.34 16.30L148.34 16.30Q148.04 16.28 147.90 16.19L147.90 16.19L147.90 16.19Q147.76 16.10 147.68 16.00L147.68 16.00L147.68 16.00Q147.60 15.89 147.54 15.79L147.54 15.79L147.54 15.79Q147.48 15.68 147.35 15.62L147.35 15.62L147.35 15.62Q147.25 15.58 147.18 15.43L147.18 15.43L147.18 15.43Q147.11 15.27 147.06 15.09L147.06 15.09L147.06 15.09Q147.01 14.90 146.99 14.70L146.99 14.70L146.99 14.70Q146.96 14.50 146.96 14.38ZM165.70 10.72L165.70 10.72L165.70 10.72Q166.07 10.72 166.28 10.98L166.28 10.98L166.28 10.98Q166.49 11.23 166.49 11.68L166.49 11.68L166.49 11.68Q166.49 11.79 166.47 11.91L166.47 11.91L166.47 11.91Q166.46 12.03 166.43 12.11L166.43 12.11L166.43 12.11Q166.14 12.04 165.79 12.03L165.79 12.03L165.79 12.03Q165.70 12.64 165.34 13.32L165.34 13.32L165.34 13.32Q164.98 14 164.46 14.60L164.46 14.60L164.46 14.60Q163.94 15.19 163.32 15.64L163.32 15.64L163.32 15.64Q162.71 16.09 162.11 16.24L162.11 16.24L162.11 16.24Q160.23 16.20 159.37 15.27L159.37 15.27L159.37 15.27Q158.51 14.34 158.51 12.36L158.51 12.36L158.51 12.36Q158.51 10.92 159.04 9.57L159.04 9.57L159.04 9.57Q159.57 8.22 160.45 7.17L160.45 7.17L160.45 7.17Q161.34 6.12 162.48 5.48L162.48 5.48L162.48 5.48Q163.62 4.84 164.85 4.84L164.85 4.84L164.85 4.84Q165.82 4.84 166.35 5.25L166.35 5.25L166.35 5.25Q166.89 5.66 166.89 6.40L166.89 6.40L166.89 6.40Q166.89 6.89 166.66 7.31L166.66 7.31L166.66 7.31Q166.43 7.73 165.90 8.22L165.90 8.22L165.90 8.22Q165.58 8.12 165.34 7.88L165.34 7.88L165.34 7.88Q165.10 7.63 165.05 7.31L165.05 7.31L165.05 7.31Q165.52 6.96 165.72 6.66L165.72 6.66L165.72 6.66Q165.91 6.37 165.91 5.96L165.91 5.96L165.91 5.96Q165.91 5.32 165.14 5.32L165.14 5.32L165.14 5.32Q164.51 5.32 163.79 5.79L163.79 5.79L163.79 5.79Q163.07 6.26 162.34 7.14L162.34 7.14L162.34 7.14Q161.31 8.39 160.83 9.71L160.83 9.71L160.83 9.71Q160.36 11.03 160.36 12.68L160.36 12.68L160.36 12.68Q160.36 13.30 160.48 13.80L160.48 13.80L160.48 13.80Q160.61 14.31 160.82 14.69L160.82 14.69L160.82 14.69Q161.03 15.06 161.31 15.29L161.31 15.29L161.31 15.29Q161.60 15.51 161.94 15.54L161.94 15.54L161.94 15.54Q162.39 15.44 162.83 15.09L162.83 15.09L162.83 15.09Q163.28 14.73 163.65 14.25L163.65 14.25L163.65 14.25Q164.02 13.76 164.28 13.21L164.28 13.21L164.28 13.21Q164.54 12.66 164.60 12.15L164.60 12.15L164.60 12.15Q164.21 12.24 163.85 12.31L163.85 12.31L163.85 12.31Q163.49 12.39 163.17 12.39L163.17 12.39L163.17 12.39Q162.75 12.39 162.44 12.18L162.44 12.18L162.44 12.18Q162.12 11.97 162.01 11.61L162.01 11.61L162.01 11.61Q162.26 11.47 162.74 11.31L162.74 11.31L162.74 11.31Q163.23 11.16 163.77 11.03L163.77 11.03L163.77 11.03Q164.32 10.89 164.84 10.81L164.84 10.81L164.84 10.81Q165.37 10.72 165.70 10.72ZM179.51 14.36L179.51 14.36L179.51 14.36Q179.51 13.78 179.70 12.85L179.70 12.85L179.70 12.85Q179.90 11.93 180.22 10.88L180.22 10.88L180.22 10.88Q179.30 10.95 178.37 11.06L178.37 11.06L178.37 11.06Q177.44 11.17 176.75 11.19L176.75 11.19L176.75 11.19Q176.12 12.66 175.75 13.89L175.75 13.89L175.75 13.89Q175.38 15.13 175.17 16.31L175.17 16.31L175.17 16.31Q174.64 16.18 174.29 15.87L174.29 15.87L174.29 15.87Q173.94 15.55 173.64 15.08L173.64 15.08L173.64 15.08Q173.75 14.85 173.90 14.50L173.90 14.50L173.90 14.50Q174.05 14.15 174.25 13.66L174.25 13.66L174.25 13.66Q174.45 13.16 174.71 12.50L174.71 12.50L174.71 12.50Q174.97 11.83 175.31 10.95L175.31 10.95L175.31 10.95Q174.85 10.75 174.69 10.40L174.69 10.40L174.69 10.40Q174.76 10.35 175.01 10.28L175.01 10.28L175.01 10.28Q175.25 10.22 175.62 10.15L175.62 10.15L175.80 9.70L175.80 9.70Q176.09 8.95 176.28 8.43L176.28 8.43L176.28 8.43Q176.47 7.91 176.60 7.41L176.60 7.41L176.60 7.41Q176.74 6.92 176.85 6.31L176.85 6.31L176.85 6.31Q176.97 5.71 177.14 4.79L177.14 4.79L177.14 4.79Q177.73 4.90 178.21 5.31L178.21 5.31L178.21 5.31Q178.70 5.71 179.05 6.29L179.05 6.29L179.05 6.29Q178.92 6.45 178.74 6.79L178.74 6.79L178.74 6.79Q178.56 7.13 178.34 7.59L178.34 7.59L178.34 7.59Q178.12 8.06 177.87 8.64L177.87 8.64L177.87 8.64Q177.62 9.23 177.32 9.87L177.32 9.87L177.32 9.87Q178.19 9.76 179.08 9.66L179.08 9.66L179.08 9.66Q179.97 9.56 180.66 9.52L180.66 9.52L180.66 9.52Q180.91 8.79 181.18 8.10L181.18 8.10L181.18 8.10Q181.45 7.41 181.72 6.83L181.72 6.83L181.72 6.83Q181.99 6.26 182.23 5.82L182.23 5.82L182.23 5.82Q182.48 5.39 182.67 5.18L182.67 5.18L182.67 5.18Q182.81 5.19 183.04 5.29L183.04 5.29L183.04 5.29Q183.27 5.38 183.51 5.50L183.51 5.50L183.51 5.50Q183.75 5.63 183.95 5.78L183.95 5.78L183.95 5.78Q184.14 5.92 184.21 6.05L184.21 6.05L184.21 6.05Q183.96 6.29 183.71 6.66L183.71 6.66L183.71 6.66Q183.46 7.04 183.21 7.53L183.21 7.53L183.21 7.53Q182.97 8.02 182.73 8.60L182.73 8.60L182.73 8.60Q182.49 9.17 182.28 9.79L182.28 9.79L182.28 9.79Q182.56 10.04 182.56 10.42L182.56 10.42L182.56 10.42Q182.56 10.68 182.45 10.91L182.45 10.91L182.45 10.91Q182.32 10.88 182.20 10.87L182.20 10.87L182.20 10.87Q182.07 10.86 181.93 10.85L181.93 10.85L181.93 10.85Q181.69 11.61 181.50 12.35L181.50 12.35L181.50 12.35Q181.30 13.09 181.17 13.76L181.17 13.76L181.17 13.76Q181.03 14.43 180.96 14.99L180.96 14.99L180.96 14.99Q180.88 15.55 180.88 15.93L180.88 15.93L180.88 15.93Q180.88 16.07 180.89 16.16L180.89 16.16L180.89 16.16Q180.89 16.24 180.91 16.30L180.91 16.30L180.91 16.30Q180.60 16.28 180.46 16.19L180.46 16.19L180.46 16.19Q180.32 16.10 180.25 16.00L180.25 16.00L180.25 16.00Q180.18 15.89 180.12 15.79L180.12 15.79L180.12 15.79Q180.07 15.68 179.94 15.62L179.94 15.62L179.94 15.62Q179.84 15.58 179.76 15.43L179.76 15.43L179.76 15.43Q179.68 15.27 179.62 15.08L179.62 15.08L179.62 15.08Q179.56 14.88 179.54 14.69L179.54 14.69L179.54 14.69Q179.51 14.49 179.51 14.36ZM193.27 6.69L193.27 6.69L193.27 6.69Q192.71 6.69 192.41 6.38L192.41 6.38L192.41 6.38Q192.11 6.06 192.11 5.61L192.11 5.61L192.11 5.61Q192.11 5.50 192.14 5.35L192.14 5.35L192.14 5.35Q192.18 5.19 192.23 5.08L192.23 5.08L192.23 5.08Q192.42 5.17 192.77 5.20L192.77 5.20L192.77 5.20Q193.13 5.24 193.61 5.24L193.61 5.24L193.61 5.24Q194.32 5.24 195.22 5.17L195.22 5.17L195.22 5.17Q196.13 5.11 196.95 5.04L196.95 5.04L196.95 5.04Q197.78 4.97 198.41 4.91L198.41 4.91L198.41 4.91Q199.04 4.84 199.22 4.84L199.22 4.84L199.22 4.84Q199.74 4.84 199.97 5.23L199.97 5.23L199.97 5.23Q200.20 5.61 200.31 6.26L200.31 6.26L200.31 6.26Q199.95 6.23 199.59 6.21L199.59 6.21L199.59 6.21Q199.23 6.19 198.98 6.19L198.98 6.19L198.98 6.19Q198.53 6.19 198.08 6.22L198.08 6.22L198.08 6.22Q197.62 6.24 197.16 6.30L197.16 6.30L197.16 6.30Q196.97 6.71 196.73 7.26L196.73 7.26L196.73 7.26Q196.49 7.81 196.26 8.41L196.26 8.41L196.26 8.41Q196.03 9.02 195.82 9.61L195.82 9.61L195.82 9.61Q195.61 10.21 195.45 10.68L195.45 10.68L195.45 10.68Q195.15 11.61 194.91 12.39L194.91 12.39L194.91 12.39Q194.68 13.17 194.51 13.85L194.51 13.85L194.51 13.85Q194.33 14.53 194.21 15.15L194.21 15.15L194.21 15.15Q194.08 15.76 193.98 16.35L193.98 16.35L193.98 16.35Q193.05 16.21 192.42 15.18L192.42 15.18L192.42 15.18Q192.53 14.74 192.69 14.23L192.69 14.23L192.69 14.23Q192.85 13.72 193.07 13.07L193.07 13.07L193.07 13.07Q193.28 12.42 193.58 11.59L193.58 11.59L193.58 11.59Q193.87 10.77 194.25 9.72L194.25 9.72L194.25 9.72Q194.39 9.32 194.54 8.90L194.54 8.90L194.54 8.90Q194.70 8.47 194.84 8.05L194.84 8.05L194.84 8.05Q194.99 7.63 195.11 7.24L195.11 7.24L195.11 7.24Q195.23 6.85 195.31 6.52L195.31 6.52L195.31 6.52Q194.73 6.59 194.20 6.64L194.20 6.64L194.20 6.64Q193.68 6.69 193.27 6.69ZM216.64 12.43L216.64 12.43L216.64 12.43Q216.64 11.45 216.87 10.51L216.87 10.51L216.87 10.51Q217.10 9.56 217.52 8.71L217.52 8.71L217.52 8.71Q217.94 7.87 218.52 7.16L218.52 7.16L218.52 7.16Q219.10 6.45 219.79 5.94L219.79 5.94L219.79 5.94Q220.49 5.42 221.27 5.13L221.27 5.13L221.27 5.13Q222.05 4.84 222.88 4.84L222.88 4.84L222.88 4.84Q223.85 4.84 224.38 5.25L224.38 5.25L224.38 5.25Q224.92 5.66 224.92 6.38L224.92 6.38L224.92 6.38Q224.92 6.66 224.85 6.96L224.85 6.96L224.85 6.96Q224.77 7.25 224.62 7.54L224.62 7.54L224.62 7.54Q224.48 7.83 224.28 8.09L224.28 8.09L224.28 8.09Q224.08 8.36 223.85 8.55L223.85 8.55L223.85 8.55Q223.48 8.50 223.22 8.22L223.22 8.22L223.22 8.22Q222.95 7.95 222.88 7.59L222.88 7.59L222.88 7.59Q223.37 7.18 223.66 6.74L223.66 6.74L223.66 6.74Q223.94 6.30 223.94 5.94L223.94 5.94L223.94 5.94Q223.94 5.32 223.17 5.32L223.17 5.32L223.17 5.32Q222.85 5.32 222.51 5.45L222.51 5.45L222.51 5.45Q222.17 5.59 221.82 5.82L221.82 5.82L221.82 5.82Q221.47 6.06 221.14 6.40L221.14 6.40L221.14 6.40Q220.81 6.73 220.53 7.14L220.53 7.14L220.53 7.14Q218.58 9.94 218.58 12.87L218.58 12.87L218.58 12.87Q218.58 13.90 218.90 14.53L218.90 14.53L218.90 14.53Q219.23 15.16 219.76 15.27L219.76 15.27L219.76 15.27Q220.36 15.13 221.28 14.50L221.28 14.50L221.28 14.50Q222.21 13.87 223.30 12.87L223.30 12.87L223.30 12.87Q223.44 13.01 223.47 13.16L223.47 13.16L223.47 13.16Q223.06 13.69 222.63 14.18L222.63 14.18L222.63 14.18Q222.19 14.67 221.77 15.08L221.77 15.08L221.77 15.08Q221.34 15.48 220.93 15.79L220.93 15.79L220.93 15.79Q220.51 16.10 220.16 16.27L220.16 16.27L220.16 16.27Q218.43 16.24 217.53 15.27L217.53 15.27L217.53 15.27Q216.64 14.31 216.64 12.43ZM237.97 4.98L237.97 4.98L237.97 4.98Q238.24 5.10 238.52 5.27L238.52 5.27L238.52 5.27Q238.80 5.45 239.04 5.63L239.04 5.63L239.04 5.63Q239.27 5.81 239.43 5.98L239.43 5.98L239.43 5.98Q239.60 6.16 239.61 6.27L239.61 6.27L239.61 6.27Q239.37 6.22 239.13 6.20L239.13 6.20L239.13 6.20Q238.90 6.17 238.70 6.17L238.70 6.17L238.70 6.17Q238.07 6.17 237.45 6.48L237.45 6.48L237.45 6.48Q236.82 6.79 236.26 7.32L236.26 7.32L236.26 7.32Q235.70 7.85 235.23 8.57L235.23 8.57L235.23 8.57Q234.75 9.28 234.41 10.09L234.41 10.09L234.41 10.09Q234.07 10.91 233.87 11.77L233.87 11.77L233.87 11.77Q233.67 12.64 233.67 13.48L233.67 13.48L233.67 13.48Q233.67 14.57 234.04 15.11L234.04 15.11L234.04 15.11Q234.40 15.64 235.10 15.64L235.10 15.64L235.10 15.64Q235.44 15.64 235.83 15.51L235.83 15.51L235.83 15.51Q236.22 15.37 236.63 15.13L236.63 15.13L236.63 15.13Q237.03 14.90 237.43 14.56L237.43 14.56L237.43 14.56Q237.82 14.22 238.15 13.82L238.15 13.82L238.15 13.82Q238.64 13.23 239.04 12.48L239.04 12.48L239.04 12.48Q239.43 11.73 239.70 10.89L239.70 10.89L239.70 10.89Q239.97 10.05 240.12 9.16L240.12 9.16L240.12 9.16Q240.27 8.27 240.27 7.42L240.27 7.42L240.27 7.42Q240.27 7.08 240.25 6.85L240.25 6.85L240.25 6.85Q240.24 6.62 240.22 6.46L240.22 6.46L240.22 6.46Q240.20 6.30 240.18 6.20L240.18 6.20L240.18 6.20Q240.17 6.10 240.16 6.03L240.16 6.03L240.16 6.03Q240.32 6.12 240.53 6.24L240.53 6.24L240.53 6.24Q240.73 6.36 240.90 6.59L240.90 6.59L240.90 6.59Q241.08 6.82 241.20 7.20L241.20 7.20L241.20 7.20Q241.32 7.57 241.32 8.18L241.32 8.18L241.32 8.18Q241.32 9.16 241.09 10.10L241.09 10.10L241.09 10.10Q240.86 11.05 240.44 11.90L240.44 11.90L240.44 11.90Q240.03 12.75 239.47 13.50L239.47 13.50L239.47 13.50Q238.91 14.24 238.27 14.80L238.27 14.80L238.27 14.80Q237.43 15.54 236.47 15.95L236.47 15.95L236.47 15.95Q235.52 16.35 234.64 16.35L234.64 16.35L234.64 16.35Q233.35 16.35 232.67 15.53L232.67 15.53L232.67 15.53Q231.99 14.71 231.99 13.12L231.99 13.12L231.99 13.12Q231.99 12.26 232.18 11.31L232.18 11.31L232.18 11.31Q232.37 10.36 232.71 9.44L232.71 9.44L232.71 9.44Q233.06 8.51 233.53 7.68L233.53 7.68L233.53 7.68Q234.01 6.85 234.58 6.21L234.58 6.21L234.58 6.21Q235.14 5.57 235.79 5.19L235.79 5.19L235.79 5.19Q236.45 4.82 237.13 4.82L237.13 4.82L237.13 4.82Q237.36 4.82 237.55 4.85L237.55 4.85L237.55 4.85Q237.75 4.89 237.97 4.98ZM254.02 5.75L254.02 5.75L254.02 5.75Q253.40 6.58 252.90 7.57L252.90 7.57L252.90 7.57Q252.39 8.57 252.03 9.61L252.03 9.61L252.03 9.61Q251.68 10.65 251.49 11.67L251.49 11.67L251.49 11.67Q251.30 12.68 251.30 13.57L251.30 13.57L251.30 13.57Q251.30 14.66 251.62 15.15L251.62 15.15L251.62 15.15Q251.94 15.64 252.73 15.64L252.73 15.64L252.73 15.64Q253.64 15.64 254.32 15.00L254.32 15.00L254.32 15.00Q255.01 14.36 255.61 13.24L255.61 13.24L255.61 13.24Q256.00 12.52 256.28 11.65L256.28 11.65L256.28 11.65Q256.56 10.78 256.74 9.86L256.74 9.86L256.74 9.86Q256.91 8.95 257.00 8.02L257.00 8.02L257.00 8.02Q257.08 7.08 257.08 6.23L257.08 6.23L257.08 6.23Q257.08 5.68 257.07 5.43L257.07 5.43L257.07 5.43Q257.05 5.18 257.03 5.03L257.03 5.03L257.03 5.03Q257.07 5.03 257.24 5.05L257.24 5.05L257.24 5.05Q257.40 5.08 257.62 5.12L257.62 5.12L257.62 5.12Q257.84 5.17 258.05 5.24L258.05 5.24L258.05 5.24Q258.27 5.31 258.43 5.39L258.43 5.39L258.43 5.39Q258.36 6.45 258.17 7.59L258.17 7.59L258.17 7.59Q257.98 8.72 257.67 9.83L257.67 9.83L257.67 9.83Q257.36 10.93 256.96 11.96L256.96 11.96L256.96 11.96Q256.55 12.98 256.05 13.79L256.05 13.79L256.05 13.79Q255.30 14.99 254.38 15.67L254.38 15.67L254.38 15.67Q253.46 16.35 252.20 16.35L252.20 16.35L252.20 16.35Q250.91 16.35 250.19 15.60L250.19 15.60L250.19 15.60Q249.48 14.85 249.48 13.33L249.48 13.33L249.48 13.33Q249.48 12.45 249.68 11.33L249.68 11.33L249.68 11.33Q249.87 10.22 250.20 9.07L250.20 9.07L250.20 9.07Q250.53 7.91 250.96 6.81L250.96 6.81L250.96 6.81Q251.40 5.71 251.87 4.84L251.87 4.84L251.87 4.84Q252.11 4.86 252.43 4.94L252.43 4.94L252.43 4.94Q252.76 5.03 253.06 5.16L253.06 5.16L253.06 5.16Q253.37 5.29 253.63 5.45L253.63 5.45L253.63 5.45Q253.89 5.61 254.02 5.75ZM274.92 7.46L274.92 7.46L274.92 7.46Q274.92 8.13 274.62 8.73L274.62 8.73L274.62 8.73Q274.32 9.32 273.78 9.79L273.78 9.79L273.78 9.79Q273.25 10.26 272.54 10.58L272.54 10.58L272.54 10.58Q271.82 10.91 270.98 11.02L270.98 11.02L270.98 11.02Q271.19 11.65 271.49 12.31L271.49 12.31L271.49 12.31Q271.80 12.98 272.15 13.59L272.15 13.59L272.15 13.59Q272.50 14.21 272.87 14.73L272.87 14.73L272.87 14.73Q273.25 15.25 273.62 15.58L273.62 15.58L273.62 15.58Q273.55 15.72 273.41 15.86L273.41 15.86L273.41 15.86Q273.28 16.00 273.10 16.12L273.10 16.12L273.10 16.12Q272.93 16.24 272.74 16.32L272.74 16.32L272.74 16.32Q272.55 16.39 272.38 16.39L272.38 16.39L272.38 16.39Q272.08 16.39 271.80 16.10L271.80 16.10L271.80 16.10Q271.52 15.81 271.23 15.17L271.23 15.17L271.23 15.17Q270.94 14.53 270.63 13.52L270.63 13.52L270.63 13.52Q270.31 12.50 269.93 11.07L269.93 11.07L269.93 11.07Q269.78 11.07 269.63 11.07L269.63 11.07L269.63 11.07Q269.47 11.07 269.39 11.05L269.39 11.05L269.39 11.05Q269.29 10.99 269.18 10.85L269.18 10.85L269.18 10.85Q268.80 11.66 268.51 12.38L268.51 12.38L268.51 12.38Q268.21 13.09 267.98 13.76L267.98 13.76L267.98 13.76Q267.75 14.42 267.57 15.04L267.57 15.04L267.57 15.04Q267.40 15.67 267.27 16.31L267.27 16.31L267.27 16.31Q266.80 16.20 266.45 15.90L266.45 15.90L266.45 15.90Q266.10 15.61 265.79 15.08L265.79 15.08L265.79 15.08Q265.85 14.95 265.91 14.83L265.91 14.83L265.91 14.83Q265.97 14.71 266.07 14.50L266.07 14.50L266.07 14.50Q266.17 14.28 266.31 13.94L266.31 13.94L266.31 13.94Q266.46 13.61 266.71 13.05L266.71 13.05L266.71 13.05Q266.95 12.49 267.29 11.68L267.29 11.68L267.29 11.68Q267.64 10.86 268.13 9.70L268.13 9.70L268.13 9.70Q268.35 9.18 268.51 8.79L268.51 8.79L268.51 8.79Q268.67 8.40 268.80 8.04L268.80 8.04L268.80 8.04Q268.93 7.69 269.03 7.33L269.03 7.33L269.03 7.33Q269.14 6.97 269.25 6.51L269.25 6.51L269.25 6.51Q268.60 6.73 268.05 7.01L268.05 7.01L268.05 7.01Q267.50 7.28 267.13 7.59L267.13 7.59L267.13 7.59Q267.01 7.50 266.87 7.34L266.87 7.34L266.87 7.34Q266.74 7.17 266.63 6.96L266.63 6.96L266.63 6.96Q266.52 6.76 266.43 6.55L266.43 6.55L266.43 6.55Q266.35 6.34 266.34 6.17L266.34 6.17L266.34 6.17Q266.76 5.89 267.36 5.66L267.36 5.66L267.36 5.66Q267.97 5.42 268.66 5.24L268.66 5.24L268.66 5.24Q269.35 5.07 270.06 4.97L270.06 4.97L270.06 4.97Q270.77 4.87 271.39 4.87L271.39 4.87L271.39 4.87Q273.07 4.87 273.99 5.56L273.99 5.56L273.99 5.56Q274.92 6.26 274.92 7.46ZM271.33 6.02L271.50 6.29L271.50 6.29Q271.40 6.41 271.19 6.79L271.19 6.79L271.19 6.79Q270.98 7.17 270.71 7.69L270.71 7.69L270.71 7.69Q270.44 8.22 270.14 8.83L270.14 8.83L270.14 8.83Q269.84 9.45 269.56 10.05L269.56 10.05L269.56 10.05Q270.61 10.05 271.49 9.86L271.49 9.86L271.49 9.86Q272.37 9.66 273.01 9.30L273.01 9.30L273.01 9.30Q273.66 8.95 274.01 8.46L274.01 8.46L274.01 8.46Q274.37 7.98 274.37 7.39L274.37 7.39L274.37 7.39Q274.37 6.69 273.87 6.32L273.87 6.32L273.87 6.32Q273.36 5.95 272.31 5.95L272.31 5.95L272.31 5.95Q272.08 5.95 271.84 5.97L271.84 5.97L271.84 5.97Q271.60 5.99 271.33 6.02L271.33 6.02ZM291.06 5.74L291.06 5.74L291.06 5.74Q291.10 5.98 291.12 6.07L291.12 6.07L291.12 6.07Q291.14 6.16 291.14 6.31L291.14 6.31L291.14 6.31Q291.14 6.78 290.94 7.18L290.94 7.18L290.94 7.18Q290.74 7.57 290.39 7.74L290.39 7.74L290.39 7.74Q290.11 7.36 289.70 7.09L289.70 7.09L289.70 7.09Q289.30 6.82 288.81 6.64L288.81 6.64L288.81 6.64Q288.33 6.47 287.81 6.38L287.81 6.38L287.81 6.38Q287.29 6.30 286.80 6.30L286.80 6.30L286.80 6.30Q286.31 6.30 285.89 6.38L285.89 6.38L285.89 6.38Q285.46 6.45 285.13 6.59L285.13 6.59L285.13 6.59Q284.80 6.72 284.61 6.92L284.61 6.92L284.61 6.92Q284.42 7.11 284.42 7.36L284.42 7.36L284.42 7.36Q284.47 7.67 284.80 7.99L284.80 7.99L284.80 7.99Q285.14 8.30 285.63 8.60L285.63 8.60L285.63 8.60Q286.12 8.90 286.71 9.20L286.71 9.20L286.71 9.20Q287.31 9.49 287.88 9.76L287.88 9.76L287.88 9.76Q288.60 10.09 289.11 10.38L289.11 10.38L289.11 10.38Q289.63 10.67 289.97 11.01L289.97 11.01L289.97 11.01Q290.30 11.35 290.47 11.79L290.47 11.79L290.47 11.79Q290.64 12.22 290.64 12.84L290.64 12.84L290.64 12.84Q290.64 13.55 290.40 14.18L290.40 14.18L290.40 14.18Q290.16 14.80 289.71 15.26L289.71 15.26L289.71 15.26Q289.25 15.72 288.61 15.98L288.61 15.98L288.61 15.98Q287.97 16.24 287.17 16.24L287.17 16.24L287.17 16.24Q286.38 16.24 285.47 16.00L285.47 16.00L285.47 16.00Q284.56 15.76 283.77 15.35L283.77 15.35L283.77 15.35Q282.98 14.94 282.46 14.40L282.46 14.40L282.46 14.40Q281.93 13.86 281.93 13.26L281.93 13.26L281.93 13.26Q281.93 12.98 282.09 12.54L282.09 12.54L282.09 12.54Q282.25 12.11 282.67 11.63L282.67 11.63L282.67 11.63Q282.72 12.05 283.13 12.63L283.13 12.63L283.13 12.63Q283.54 13.20 284.37 13.69L284.37 13.69L284.37 13.69Q285.14 14.14 285.96 14.34L285.96 14.34L285.96 14.34Q286.78 14.55 287.49 14.55L287.49 14.55L287.49 14.55Q288.27 14.55 288.76 14.35L288.76 14.35L288.76 14.35Q289.25 14.15 289.53 13.88L289.53 13.88L289.53 13.88Q289.81 13.61 289.93 13.33L289.93 13.33L289.93 13.33Q290.04 13.05 290.05 12.88L290.05 12.88L290.05 12.88Q290.04 12.60 289.79 12.34L289.79 12.34L289.79 12.34Q289.55 12.08 289.13 11.84L289.13 11.84L289.13 11.84Q288.72 11.59 288.18 11.34L288.18 11.34L288.18 11.34Q287.63 11.09 287.04 10.84L287.04 10.84L287.04 10.84Q286.16 10.44 285.52 10.10L285.52 10.10L285.52 10.10Q284.89 9.76 284.47 9.40L284.47 9.40L284.47 9.40Q284.06 9.04 283.87 8.65L283.87 8.65L283.87 8.65Q283.68 8.26 283.68 7.76L283.68 7.76L283.68 7.76Q283.68 6.97 284.16 6.27L284.16 6.27L284.16 6.27Q284.63 5.57 285.53 5.21L285.53 5.21L285.53 5.21Q285.98 5.01 286.49 4.93L286.49 4.93L286.49 4.93Q287.00 4.84 287.49 4.84L287.49 4.84L287.49 4.84Q288.41 4.84 289.30 5.10L289.30 5.10L289.30 5.10Q290.18 5.35 291.06 5.74ZM304.54 9.21L304.54 9.21L304.54 9.21Q305.00 9.21 305.26 9.46L305.26 9.46L305.26 9.46Q305.52 9.72 305.52 10.16L305.52 10.16L305.52 10.16Q305.52 10.28 305.50 10.39L305.50 10.39L305.50 10.39Q305.48 10.51 305.45 10.60L305.45 10.60L305.45 10.60Q305.27 10.57 305.05 10.55L305.05 10.55L305.05 10.55Q304.82 10.53 304.51 10.53L304.51 10.53L304.51 10.53Q303.91 10.53 303.30 10.63L303.30 10.63L303.30 10.63Q302.68 10.74 302.12 10.81L302.12 10.81L302.12 10.81Q301.80 11.55 301.53 12.24L301.53 12.24L301.53 12.24Q301.27 12.94 301.08 13.51L301.08 13.51L301.08 13.51Q300.89 14.08 300.78 14.50L300.78 14.50L300.78 14.50Q300.68 14.92 300.66 15.13L300.66 15.13L300.66 15.13Q301.80 14.90 302.95 14.73L302.95 14.73L302.95 14.73Q304.11 14.56 305.38 14.48L305.38 14.48L305.38 14.48Q305.54 14.71 305.64 14.99L305.64 14.99L305.64 14.99Q305.75 15.27 305.75 15.60L305.75 15.60L305.75 15.60Q305.75 15.68 305.75 15.78L305.75 15.78L305.75 15.78Q305.75 15.88 305.72 15.97L305.72 15.97L305.72 15.97Q305.33 15.96 304.89 15.95L304.89 15.95L304.89 15.95Q304.46 15.95 303.76 15.95L303.76 15.95L303.76 15.95Q303.30 15.95 302.88 15.97L302.88 15.97L302.88 15.97Q302.47 15.99 302.05 16.03L302.05 16.03L302.05 16.03Q301.63 16.07 301.16 16.14L301.16 16.14L301.16 16.14Q300.69 16.21 300.10 16.31L300.10 16.31L300.10 16.31Q299.46 16.06 298.86 15.08L298.86 15.08L298.86 15.08Q299.10 14.57 299.52 13.54L299.52 13.54L299.52 13.54Q299.95 12.52 300.61 10.79L300.61 10.79L300.61 10.79Q299.98 10.60 299.78 10.09L299.78 10.09L299.78 10.09Q299.85 10.02 300.19 9.92L300.19 9.92L300.19 9.92Q300.52 9.81 301.01 9.70L301.01 9.70L301.01 9.70Q301.22 9.16 301.37 8.75L301.37 8.75L301.37 8.75Q301.52 8.34 301.63 7.99L301.63 7.99L301.63 7.99Q301.74 7.63 301.83 7.29L301.83 7.29L301.83 7.29Q301.92 6.94 302.01 6.54L302.01 6.54L302.01 6.54Q301.52 6.51 301.24 6.27L301.24 6.27L301.24 6.27Q300.96 6.02 300.96 5.63L300.96 5.63L300.96 5.63Q300.96 5.52 300.99 5.36L300.99 5.36L300.99 5.36Q301.03 5.21 301.07 5.10L301.07 5.10L301.07 5.10Q301.35 5.14 301.61 5.15L301.61 5.15L301.61 5.15Q301.87 5.17 302.29 5.17L302.29 5.17L302.29 5.17Q303.17 5.17 303.94 5.12L303.94 5.12L303.94 5.12Q304.71 5.07 305.33 5.01L305.33 5.01L305.33 5.01Q305.96 4.96 306.40 4.91L306.40 4.91L306.40 4.91Q306.85 4.86 307.09 4.86L307.09 4.86L307.09 4.86Q307.41 4.86 307.66 5.19L307.66 5.19L307.66 5.19Q307.92 5.53 308.04 6.15L308.04 6.15L308.04 6.15Q307.61 6.10 307.33 6.09L307.33 6.09L307.33 6.09Q307.06 6.08 306.85 6.08L306.85 6.08L306.85 6.08Q306.08 6.08 305.44 6.15L305.44 6.15L305.44 6.15Q304.81 6.23 304.22 6.31L304.22 6.31L304.22 6.31Q304.14 6.44 304.03 6.64L304.03 6.64L304.03 6.64Q303.93 6.83 303.76 7.18L303.76 7.18L303.76 7.18Q303.59 7.53 303.34 8.06L303.34 8.06L303.34 8.06Q303.10 8.60 302.75 9.39L302.75 9.39L302.75 9.39Q303.28 9.31 303.75 9.26L303.75 9.26L303.75 9.26Q304.22 9.21 304.54 9.21ZM330.48 9.34L330.48 9.34L330.48 9.34Q330.93 9.34 331.19 9.59L331.19 9.59L331.19 9.59Q331.45 9.84 331.45 10.29L331.45 10.29L331.45 10.29Q331.45 10.40 331.44 10.52L331.44 10.52L331.44 10.52Q331.42 10.64 331.38 10.72L331.38 10.72L331.38 10.72Q331.20 10.70 330.97 10.68L330.97 10.68L330.97 10.68Q330.75 10.65 330.44 10.65L330.44 10.65L330.44 10.65Q329.81 10.65 329.18 10.77L329.18 10.77L329.18 10.77Q328.55 10.88 327.98 10.95L327.98 10.95L327.98 10.95Q327.35 12.43 326.94 13.73L326.94 13.73L326.94 13.73Q326.54 15.04 326.31 16.31L326.31 16.31L326.31 16.31Q325.84 16.20 325.47 15.90L325.47 15.90L325.47 15.90Q325.11 15.61 324.79 15.08L324.79 15.08L324.79 15.08Q324.88 14.85 325.02 14.54L325.02 14.54L325.02 14.54Q325.16 14.22 325.36 13.74L325.36 13.74L325.36 13.74Q325.56 13.26 325.83 12.56L325.83 12.56L325.83 12.56Q326.10 11.87 326.48 10.91L326.48 10.91L326.48 10.91Q325.89 10.71 325.71 10.22L325.71 10.22L325.71 10.22Q325.78 10.15 326.10 10.06L326.10 10.06L326.10 10.06Q326.42 9.97 326.89 9.86L326.89 9.86L326.89 9.86Q327.10 9.31 327.25 8.88L327.25 8.88L327.25 8.88Q327.40 8.46 327.53 8.07L327.53 8.07L327.53 8.07Q327.66 7.69 327.76 7.32L327.76 7.32L327.76 7.32Q327.87 6.94 327.95 6.52L327.95 6.52L327.88 6.52L327.88 6.52Q327.35 6.52 327.02 6.27L327.02 6.27L327.02 6.27Q326.69 6.02 326.69 5.61L326.69 5.61L326.69 5.61Q326.69 5.50 326.72 5.35L326.72 5.35L326.72 5.35Q326.76 5.19 326.82 5.08L326.82 5.08L326.82 5.08Q327.08 5.12 327.34 5.14L327.34 5.14L327.34 5.14Q327.60 5.15 328.02 5.15L328.02 5.15L328.02 5.15Q328.90 5.15 329.67 5.10L329.67 5.10L329.67 5.10Q330.44 5.05 331.06 5.00L331.06 5.00L331.06 5.00Q331.69 4.94 332.14 4.89L332.14 4.89L332.14 4.89Q332.58 4.84 332.82 4.84L332.82 4.84L332.82 4.84Q333.14 4.84 333.40 5.18L333.40 5.18L333.40 5.18Q333.65 5.52 333.79 6.13L333.79 6.13L333.79 6.13Q333.34 6.09 333.07 6.08L333.07 6.08L333.07 6.08Q332.79 6.06 332.58 6.06L332.58 6.06L332.58 6.06Q331.87 6.06 331.27 6.13L331.27 6.13L331.27 6.13Q330.68 6.19 330.15 6.27L330.15 6.27L330.15 6.27Q330.06 6.40 329.96 6.59L329.96 6.59L329.96 6.59Q329.85 6.79 329.69 7.15L329.69 7.15L329.69 7.15Q329.52 7.50 329.26 8.08L329.26 8.08L329.26 8.08Q329.00 8.65 328.61 9.53L328.61 9.53L328.61 9.53Q329.15 9.45 329.65 9.39L329.65 9.39L329.65 9.39Q330.15 9.34 330.48 9.34ZM345.79 4.98L345.79 4.98L345.79 4.98Q346.05 5.10 346.33 5.27L346.33 5.27L346.33 5.27Q346.61 5.45 346.85 5.63L346.85 5.63L346.85 5.63Q347.09 5.81 347.25 5.98L347.25 5.98L347.25 5.98Q347.41 6.16 347.42 6.27L347.42 6.27L347.42 6.27Q347.19 6.22 346.95 6.20L346.95 6.20L346.95 6.20Q346.71 6.17 346.51 6.17L346.51 6.17L346.51 6.17Q345.88 6.17 345.26 6.48L345.26 6.48L345.26 6.48Q344.64 6.79 344.08 7.32L344.08 7.32L344.08 7.32Q343.52 7.85 343.04 8.57L343.04 8.57L343.04 8.57Q342.57 9.28 342.22 10.09L342.22 10.09L342.22 10.09Q341.88 10.91 341.68 11.77L341.68 11.77L341.68 11.77Q341.49 12.64 341.49 13.48L341.49 13.48L341.49 13.48Q341.49 14.57 341.85 15.11L341.85 15.11L341.85 15.11Q342.22 15.64 342.92 15.64L342.92 15.64L342.92 15.64Q343.25 15.64 343.64 15.51L343.64 15.51L343.64 15.51Q344.04 15.37 344.44 15.13L344.44 15.13L344.44 15.13Q344.85 14.90 345.24 14.56L345.24 14.56L345.24 14.56Q345.63 14.22 345.97 13.82L345.97 13.82L345.97 13.82Q346.46 13.23 346.85 12.48L346.85 12.48L346.85 12.48Q347.24 11.73 347.51 10.89L347.51 10.89L347.51 10.89Q347.79 10.05 347.93 9.16L347.93 9.16L347.93 9.16Q348.08 8.27 348.08 7.42L348.08 7.42L348.08 7.42Q348.08 7.08 348.07 6.85L348.07 6.85L348.07 6.85Q348.05 6.62 348.03 6.46L348.03 6.46L348.03 6.46Q348.01 6.30 348.00 6.20L348.00 6.20L348.00 6.20Q347.98 6.10 347.97 6.03L347.97 6.03L347.97 6.03Q348.14 6.12 348.34 6.24L348.34 6.24L348.34 6.24Q348.54 6.36 348.72 6.59L348.72 6.59L348.72 6.59Q348.89 6.82 349.01 7.20L349.01 7.20L349.01 7.20Q349.13 7.57 349.13 8.18L349.13 8.18L349.13 8.18Q349.13 9.16 348.90 10.10L348.90 10.10L348.90 10.10Q348.67 11.05 348.26 11.90L348.26 11.90L348.26 11.90Q347.84 12.75 347.28 13.50L347.28 13.50L347.28 13.50Q346.72 14.24 346.08 14.80L346.08 14.80L346.08 14.80Q345.24 15.54 344.29 15.95L344.29 15.95L344.29 15.95Q343.34 16.35 342.45 16.35L342.45 16.35L342.45 16.35Q341.17 16.35 340.49 15.53L340.49 15.53L340.49 15.53Q339.81 14.71 339.81 13.12L339.81 13.12L339.81 13.12Q339.81 12.26 340.00 11.31L340.00 11.31L340.00 11.31Q340.19 10.36 340.53 9.44L340.53 9.44L340.53 9.44Q340.87 8.51 341.35 7.68L341.35 7.68L341.35 7.68Q341.82 6.85 342.39 6.21L342.39 6.21L342.39 6.21Q342.96 5.57 343.61 5.19L343.61 5.19L343.61 5.19Q344.26 4.82 344.95 4.82L344.95 4.82L344.95 4.82Q345.17 4.82 345.37 4.85L345.37 4.85L345.37 4.85Q345.56 4.89 345.79 4.98ZM365.97 7.46L365.97 7.46L365.97 7.46Q365.97 8.13 365.67 8.73L365.67 8.73L365.67 8.73Q365.37 9.32 364.84 9.79L364.84 9.79L364.84 9.79Q364.31 10.26 363.59 10.58L363.59 10.58L363.59 10.58Q362.88 10.91 362.04 11.02L362.04 11.02L362.04 11.02Q362.25 11.65 362.55 12.31L362.55 12.31L362.55 12.31Q362.85 12.98 363.20 13.59L363.20 13.59L363.20 13.59Q363.55 14.21 363.93 14.73L363.93 14.73L363.93 14.73Q364.31 15.25 364.67 15.58L364.67 15.58L364.67 15.58Q364.60 15.72 364.47 15.86L364.47 15.86L364.47 15.86Q364.34 16.00 364.16 16.12L364.16 16.12L364.16 16.12Q363.99 16.24 363.80 16.32L363.80 16.32L363.80 16.32Q363.61 16.39 363.44 16.39L363.44 16.39L363.44 16.39Q363.13 16.39 362.85 16.10L362.85 16.10L362.85 16.10Q362.57 15.81 362.28 15.17L362.28 15.17L362.28 15.17Q362.00 14.53 361.68 13.52L361.68 13.52L361.68 13.52Q361.37 12.50 360.99 11.07L360.99 11.07L360.99 11.07Q360.84 11.07 360.68 11.07L360.68 11.07L360.68 11.07Q360.53 11.07 360.44 11.05L360.44 11.05L360.44 11.05Q360.35 10.99 360.23 10.85L360.23 10.85L360.23 10.85Q359.86 11.66 359.56 12.38L359.56 12.38L359.56 12.38Q359.27 13.09 359.04 13.76L359.04 13.76L359.04 13.76Q358.81 14.42 358.63 15.04L358.63 15.04L358.63 15.04Q358.46 15.67 358.33 16.31L358.33 16.31L358.33 16.31Q357.85 16.20 357.50 15.90L357.50 15.90L357.50 15.90Q357.15 15.61 356.85 15.08L356.85 15.08L356.85 15.08Q356.90 14.95 356.96 14.83L356.96 14.83L356.96 14.83Q357.03 14.71 357.13 14.50L357.13 14.50L357.13 14.50Q357.22 14.28 357.37 13.94L357.37 13.94L357.37 13.94Q357.52 13.61 357.76 13.05L357.76 13.05L357.76 13.05Q358.01 12.49 358.35 11.68L358.35 11.68L358.35 11.68Q358.69 10.86 359.18 9.70L359.18 9.70L359.18 9.70Q359.41 9.18 359.57 8.79L359.57 8.79L359.57 8.79Q359.73 8.40 359.86 8.04L359.86 8.04L359.86 8.04Q359.98 7.69 360.09 7.33L360.09 7.33L360.09 7.33Q360.19 6.97 360.30 6.51L360.30 6.51L360.30 6.51Q359.66 6.73 359.11 7.01L359.11 7.01L359.11 7.01Q358.55 7.28 358.19 7.59L358.19 7.59L358.19 7.59Q358.06 7.50 357.93 7.34L357.93 7.34L357.93 7.34Q357.80 7.17 357.69 6.96L357.69 6.96L357.69 6.96Q357.57 6.76 357.49 6.55L357.49 6.55L357.49 6.55Q357.41 6.34 357.39 6.17L357.39 6.17L357.39 6.17Q357.81 5.89 358.42 5.66L358.42 5.66L358.42 5.66Q359.03 5.42 359.72 5.24L359.72 5.24L359.72 5.24Q360.40 5.07 361.12 4.97L361.12 4.97L361.12 4.97Q361.83 4.87 362.45 4.87L362.45 4.87L362.45 4.87Q364.13 4.87 365.05 5.56L365.05 5.56L365.05 5.56Q365.97 6.26 365.97 7.46ZM362.39 6.02L362.56 6.29L362.56 6.29Q362.46 6.41 362.25 6.79L362.25 6.79L362.25 6.79Q362.04 7.17 361.77 7.69L361.77 7.69L361.77 7.69Q361.49 8.22 361.19 8.83L361.19 8.83L361.19 8.83Q360.89 9.45 360.61 10.05L360.61 10.05L360.61 10.05Q361.66 10.05 362.54 9.86L362.54 9.86L362.54 9.86Q363.43 9.66 364.07 9.30L364.07 9.30L364.07 9.30Q364.71 8.95 365.07 8.46L365.07 8.46L365.07 8.46Q365.43 7.98 365.43 7.39L365.43 7.39L365.43 7.39Q365.43 6.69 364.92 6.32L364.92 6.32L364.92 6.32Q364.42 5.95 363.37 5.95L363.37 5.95L363.37 5.95Q363.13 5.95 362.89 5.97L362.89 5.97L362.89 5.97Q362.66 5.99 362.39 6.02L362.39 6.02ZM388.63 10.35L388.63 10.35L388.63 10.35Q389.68 9.20 390.51 7.91L390.51 7.91L390.51 7.91Q391.34 6.62 392.06 5.01L392.06 5.01L392.06 5.01Q392.42 5.05 392.76 5.21L392.76 5.21L392.76 5.21Q393.09 5.36 393.29 5.56L393.29 5.56L393.29 5.56Q392.52 6.48 391.89 7.24L391.89 7.24L391.89 7.24Q391.27 7.99 390.75 8.66L390.75 8.66L390.75 8.66Q390.24 9.32 389.79 9.93L389.79 9.93L389.79 9.93Q389.35 10.54 388.93 11.16L388.93 11.16L388.93 11.16Q388.72 11.87 388.54 12.60L388.54 12.60L388.54 12.60Q388.36 13.33 388.22 13.99L388.22 13.99L388.22 13.99Q388.08 14.66 388.00 15.22L388.00 15.22L388.00 15.22Q387.93 15.79 387.93 16.20L387.93 16.20L387.93 16.20Q387.77 16.20 387.44 16.14L387.44 16.14L387.44 16.14Q387.10 16.07 386.75 15.99L386.75 15.99L386.75 15.99Q386.40 15.90 386.11 15.82L386.11 15.82L386.11 15.82Q385.83 15.74 385.77 15.68L385.77 15.68L385.77 15.68Q385.99 15.30 386.21 14.75L386.21 14.75L386.21 14.75Q386.43 14.20 386.64 13.59L386.64 13.59L386.64 13.59Q386.85 12.98 387.04 12.36L387.04 12.36L387.04 12.36Q387.24 11.73 387.41 11.20L387.41 11.20L387.41 11.20Q387.06 10.11 386.73 9.15L386.73 9.15L386.73 9.15Q386.40 8.19 386.09 7.41L386.09 7.41L386.09 7.41Q385.78 6.64 385.50 6.08L385.50 6.08L385.50 6.08Q385.22 5.52 384.97 5.22L384.97 5.22L384.97 5.22Q385.11 5.17 385.40 5.11L385.40 5.11L385.40 5.11Q385.69 5.05 386.03 5.00L386.03 5.00L386.03 5.00Q386.37 4.94 386.73 4.91L386.73 4.91L386.73 4.91Q387.09 4.87 387.37 4.86L387.37 4.86L387.37 4.86Q387.37 5.21 387.43 5.71L387.43 5.71L387.43 5.71Q387.49 6.22 387.60 6.79L387.60 6.79L387.60 6.79Q387.70 7.36 387.84 7.95L387.84 7.95L387.84 7.95Q387.98 8.54 388.12 9.03L388.12 9.03L388.12 9.03Q388.26 9.52 388.39 9.88L388.39 9.88L388.39 9.88Q388.53 10.23 388.63 10.35ZM405.27 4.98L405.27 4.98L405.27 4.98Q405.54 5.10 405.82 5.27L405.82 5.27L405.82 5.27Q406.10 5.45 406.34 5.63L406.34 5.63L406.34 5.63Q406.57 5.81 406.73 5.98L406.73 5.98L406.73 5.98Q406.90 6.16 406.91 6.27L406.91 6.27L406.91 6.27Q406.67 6.22 406.43 6.20L406.43 6.20L406.43 6.20Q406.20 6.17 406.00 6.17L406.00 6.17L406.00 6.17Q405.37 6.17 404.75 6.48L404.75 6.48L404.75 6.48Q404.12 6.79 403.56 7.32L403.56 7.32L403.56 7.32Q403.00 7.85 402.53 8.57L402.53 8.57L402.53 8.57Q402.05 9.28 401.71 10.09L401.71 10.09L401.71 10.09Q401.37 10.91 401.17 11.77L401.17 11.77L401.17 11.77Q400.97 12.64 400.97 13.48L400.97 13.48L400.97 13.48Q400.97 14.57 401.34 15.11L401.34 15.11L401.34 15.11Q401.70 15.64 402.40 15.64L402.40 15.64L402.40 15.64Q402.74 15.64 403.13 15.51L403.13 15.51L403.13 15.51Q403.52 15.37 403.93 15.13L403.93 15.13L403.93 15.13Q404.33 14.90 404.73 14.56L404.73 14.56L404.73 14.56Q405.12 14.22 405.45 13.82L405.45 13.82L405.45 13.82Q405.94 13.23 406.34 12.48L406.34 12.48L406.34 12.48Q406.73 11.73 407.00 10.89L407.00 10.89L407.00 10.89Q407.27 10.05 407.42 9.16L407.42 9.16L407.42 9.16Q407.57 8.27 407.57 7.42L407.57 7.42L407.57 7.42Q407.57 7.08 407.55 6.85L407.55 6.85L407.55 6.85Q407.54 6.62 407.52 6.46L407.52 6.46L407.52 6.46Q407.50 6.30 407.48 6.20L407.48 6.20L407.48 6.20Q407.47 6.10 407.46 6.03L407.46 6.03L407.46 6.03Q407.62 6.12 407.83 6.24L407.83 6.24L407.83 6.24Q408.03 6.36 408.20 6.59L408.20 6.59L408.20 6.59Q408.38 6.82 408.50 7.20L408.50 7.20L408.50 7.20Q408.62 7.57 408.62 8.18L408.62 8.18L408.62 8.18Q408.62 9.16 408.39 10.10L408.39 10.10L408.39 10.10Q408.16 11.05 407.74 11.90L407.74 11.90L407.74 11.90Q407.33 12.75 406.77 13.50L406.77 13.50L406.77 13.50Q406.21 14.24 405.57 14.80L405.57 14.80L405.57 14.80Q404.73 15.54 403.77 15.95L403.77 15.95L403.77 15.95Q402.82 16.35 401.94 16.35L401.94 16.35L401.94 16.35Q400.65 16.35 399.97 15.53L399.97 15.53L399.97 15.53Q399.29 14.71 399.29 13.12L399.29 13.12L399.29 13.12Q399.29 12.26 399.48 11.31L399.48 11.31L399.48 11.31Q399.67 10.36 400.01 9.44L400.01 9.44L400.01 9.44Q400.36 8.51 400.83 7.68L400.83 7.68L400.83 7.68Q401.31 6.85 401.88 6.21L401.88 6.21L401.88 6.21Q402.44 5.57 403.09 5.19L403.09 5.19L403.09 5.19Q403.75 4.82 404.43 4.82L404.43 4.82L404.43 4.82Q404.66 4.82 404.85 4.85L404.85 4.85L404.85 4.85Q405.05 4.89 405.27 4.98ZM421.32 5.75L421.32 5.75L421.32 5.75Q420.70 6.58 420.20 7.57L420.20 7.57L420.20 7.57Q419.69 8.57 419.33 9.61L419.33 9.61L419.33 9.61Q418.98 10.65 418.79 11.67L418.79 11.67L418.79 11.67Q418.60 12.68 418.60 13.57L418.60 13.57L418.60 13.57Q418.60 14.66 418.92 15.15L418.92 15.15L418.92 15.15Q419.24 15.64 420.03 15.64L420.03 15.64L420.03 15.64Q420.94 15.64 421.62 15.00L421.62 15.00L421.62 15.00Q422.31 14.36 422.91 13.24L422.91 13.24L422.91 13.24Q423.30 12.52 423.58 11.65L423.58 11.65L423.58 11.65Q423.86 10.78 424.04 9.86L424.04 9.86L424.04 9.86Q424.21 8.95 424.30 8.02L424.30 8.02L424.30 8.02Q424.38 7.08 424.38 6.23L424.38 6.23L424.38 6.23Q424.38 5.68 424.37 5.43L424.37 5.43L424.37 5.43Q424.35 5.18 424.33 5.03L424.33 5.03L424.33 5.03Q424.37 5.03 424.54 5.05L424.54 5.05L424.54 5.05Q424.70 5.08 424.92 5.12L424.92 5.12L424.92 5.12Q425.14 5.17 425.35 5.24L425.35 5.24L425.35 5.24Q425.57 5.31 425.73 5.39L425.73 5.39L425.73 5.39Q425.66 6.45 425.47 7.59L425.47 7.59L425.47 7.59Q425.28 8.72 424.97 9.83L424.97 9.83L424.97 9.83Q424.66 10.93 424.26 11.96L424.26 11.96L424.26 11.96Q423.85 12.98 423.35 13.79L423.35 13.79L423.35 13.79Q422.60 14.99 421.68 15.67L421.68 15.67L421.68 15.67Q420.76 16.35 419.50 16.35L419.50 16.35L419.50 16.35Q418.21 16.35 417.49 15.60L417.49 15.60L417.49 15.60Q416.78 14.85 416.78 13.33L416.78 13.33L416.78 13.33Q416.78 12.45 416.98 11.33L416.98 11.33L416.98 11.33Q417.17 10.22 417.50 9.07L417.50 9.07L417.50 9.07Q417.83 7.91 418.26 6.81L418.26 6.81L418.26 6.81Q418.70 5.71 419.17 4.84L419.17 4.84L419.17 4.84Q419.41 4.86 419.73 4.94L419.73 4.94L419.73 4.94Q420.06 5.03 420.36 5.16L420.36 5.16L420.36 5.16Q420.67 5.29 420.93 5.45L420.93 5.45L420.93 5.45Q421.19 5.61 421.32 5.75Z"></path></g></svg>