<svg data-v-423bf9ae="" xmlns="http://www.w3.org/2000/svg" viewBox="0 0 503.8038452202286 60" class="font"><!----><!----><!----><g data-v-423bf9ae="" id="bd872a22-6740-4941-a4d8-5855cb6d5bb5" fill="black" transform="matrix(4.457651974651253,0,0,4.457651974651253,-2.1842534705314165,-17.78603213662572)"><path d="M0.49 9.50L0.49 9.50L0.49 9.50Q0.49 8.98 0.56 8.46L0.56 8.46L0.56 8.46Q0.64 7.94 0.81 7.39L0.81 7.39L0.81 7.39Q0.99 6.84 1.25 6.35L1.25 6.35L1.25 6.35Q1.52 5.87 1.93 5.42L1.93 5.42L1.93 5.42Q2.34 4.98 2.86 4.67L2.86 4.67L2.86 4.67Q3.38 4.35 4.10 4.17L4.10 4.17L4.10 4.17Q4.81 3.99 5.65 3.99L5.65 3.99L5.65 3.99Q6.36 3.99 7.04 4.16L7.04 4.16L7.04 4.16Q7.71 4.33 8.31 4.67L8.31 4.67L8.31 4.67Q8.90 5.02 9.33 5.60L9.33 5.60L9.33 5.60Q9.76 6.17 9.93 6.92L9.93 6.92L9.94 7.01L9.94 7.01Q9.94 7.22 9.69 7.28L9.69 7.28L7.90 7.90L7.90 7.90Q7.79 7.94 7.72 7.94L7.72 7.94L7.72 7.94Q7.55 7.94 7.57 7.79L7.57 7.79L7.59 7.58L7.60 7.33L7.60 7.33Q7.60 7.01 7.54 6.71L7.54 6.71L7.54 6.71Q7.49 6.41 7.33 6.11L7.33 6.11L7.33 6.11Q7.18 5.81 6.96 5.59L6.96 5.59L6.96 5.59Q6.73 5.37 6.36 5.23L6.36 5.23L6.36 5.23Q6.00 5.09 5.54 5.09L5.54 5.09L5.54 5.09Q5.06 5.09 4.65 5.26L4.65 5.26L4.65 5.26Q4.25 5.43 3.96 5.73L3.96 5.73L3.96 5.73Q3.68 6.02 3.47 6.40L3.47 6.40L3.47 6.40Q3.25 6.77 3.13 7.21L3.13 7.21L3.13 7.21Q3.01 7.65 2.95 8.07L2.95 8.07L2.95 8.07Q2.88 8.48 2.88 8.89L2.88 8.89L2.88 8.89Q2.88 10.28 3.20 11.29L3.20 11.29L3.20 11.29Q3.52 12.30 4.21 12.88L4.21 12.88L4.21 12.88Q4.90 13.47 5.92 13.47L5.92 13.47L5.92 13.47Q6.51 13.47 7.02 13.32L7.02 13.32L7.02 13.32Q7.53 13.18 7.88 12.96L7.88 12.96L7.88 12.96Q8.23 12.74 8.52 12.42L8.52 12.42L8.52 12.42Q8.81 12.10 8.98 11.82L8.98 11.82L8.98 11.82Q9.15 11.53 9.31 11.19L9.31 11.19L9.31 11.19Q9.39 11.01 9.55 11.01L9.55 11.01L9.55 11.01Q9.63 11.01 9.73 11.06L9.73 11.06L10.22 11.29L10.22 11.29Q10.34 11.34 10.39 11.40L10.39 11.40L10.39 11.40Q10.43 11.46 10.38 11.57L10.38 11.57L10.38 11.57Q10.19 12.04 9.93 12.47L9.93 12.47L9.93 12.47Q9.67 12.89 9.25 13.33L9.25 13.33L9.25 13.33Q8.84 13.76 8.35 14.07L8.35 14.07L8.35 14.07Q7.85 14.38 7.17 14.58L7.17 14.58L7.17 14.58Q6.48 14.78 5.70 14.78L5.70 14.78L5.70 14.78Q4.46 14.78 3.47 14.38L3.47 14.38L3.47 14.38Q2.47 13.98 1.83 13.27L1.83 13.27L1.83 13.27Q1.18 12.56 0.84 11.60L0.84 11.60L0.84 11.60Q0.49 10.64 0.49 9.50ZM11.03 11.07L11.03 11.07L11.03 11.07Q11.03 10.01 11.59 9.11L11.59 9.11L11.59 9.11Q12.15 8.20 13.12 7.77L13.12 7.77L13.12 7.77Q13.79 7.47 14.53 7.47L14.53 7.47L14.53 7.47Q15.59 7.47 16.51 8.07L16.51 8.07L16.51 8.07Q17.43 8.66 17.89 9.69L17.89 9.69L17.89 9.69Q18.22 10.41 18.22 11.22L18.22 11.22L18.22 11.22Q18.22 12.28 17.66 13.17L17.66 13.17L17.66 13.17Q17.10 14.07 16.12 14.51L16.12 14.51L16.12 14.51Q15.43 14.81 14.70 14.81L14.70 14.81L14.70 14.81Q13.64 14.81 12.72 14.22L12.72 14.22L12.72 14.22Q11.80 13.62 11.35 12.60L11.35 12.60L11.35 12.60Q11.03 11.87 11.03 11.07ZM12.69 10.19L12.69 10.19L12.69 10.19Q12.69 10.96 13.08 11.83L13.08 11.83L13.08 11.83Q13.45 12.63 13.99 13.16L13.99 13.16L13.99 13.16Q14.53 13.69 15.13 13.69L15.13 13.69L15.13 13.69Q15.41 13.69 15.70 13.57L15.70 13.57L15.70 13.57Q16.54 13.20 16.54 12.09L16.54 12.09L16.54 12.09Q16.54 11.33 16.15 10.46L16.15 10.46L16.15 10.46Q15.79 9.65 15.25 9.12L15.25 9.12L15.25 9.12Q14.70 8.59 14.10 8.59L14.10 8.59L14.10 8.59Q13.82 8.59 13.54 8.72L13.54 8.72L13.54 8.72Q12.69 9.08 12.69 10.19ZM18.37 8.28L18.37 8.28L18.37 7.85L18.37 7.85Q18.37 7.65 18.58 7.65L18.58 7.65L18.61 7.64L21.43 7.64L21.43 7.64Q21.64 7.64 21.64 7.85L21.64 7.85L21.64 11.93L21.64 11.93Q21.64 11.97 21.64 12.04L21.64 12.04L21.64 12.04Q21.64 12.26 21.64 12.37L21.64 12.37L21.64 12.37Q21.64 12.48 21.66 12.67L21.66 12.67L21.66 12.67Q21.68 12.87 21.71 12.97L21.71 12.97L21.71 12.97Q21.75 13.07 21.82 13.21L21.82 13.21L21.82 13.21Q21.90 13.34 22.00 13.42L22.00 13.42L22.00 13.42Q22.11 13.49 22.27 13.54L22.27 13.54L22.27 13.54Q22.44 13.59 22.65 13.59L22.65 13.59L22.65 13.59Q23.15 13.59 23.66 13.22L23.66 13.22L23.66 13.22Q24.17 12.86 24.35 12.40L24.35 12.40L24.35 9.82L24.35 9.82Q24.35 9.22 24.08 8.85L24.08 8.85L24.08 8.85Q23.82 8.48 23.32 8.48L23.32 8.48L23.29 8.48L23.29 8.48Q23.08 8.48 23.08 8.28L23.08 8.28L23.08 7.85L23.08 7.85Q23.08 7.66 23.30 7.64L23.30 7.64L26.11 7.64L26.11 7.64Q26.32 7.64 26.32 7.85L26.32 7.85L26.32 11.81L26.32 11.81Q26.32 12.15 26.34 12.37L26.34 12.37L26.34 12.37Q26.37 12.60 26.44 12.85L26.44 12.85L26.44 12.85Q26.52 13.10 26.69 13.25L26.69 13.25L26.69 13.25Q26.87 13.39 27.15 13.42L27.15 13.42L27.15 13.42Q27.32 13.44 27.31 13.60L27.31 13.60L27.31 14.08L27.31 14.08Q27.31 14.26 27.10 14.26L27.10 14.26L27.10 14.26Q26.46 14.26 25.94 14.35L25.94 14.35L25.94 14.35Q25.42 14.44 25.20 14.53L25.20 14.53L25.20 14.53Q24.97 14.61 24.53 14.80L24.53 14.80L24.53 14.80Q24.48 14.83 24.42 14.83L24.42 14.83L24.38 14.83L24.38 14.83Q24.36 14.83 24.36 14.78L24.36 14.78L24.58 13.02L24.58 13.02Q24.42 13.34 24.20 13.63L24.20 13.63L24.20 13.63Q23.97 13.93 23.66 14.21L23.66 14.21L23.66 14.21Q23.34 14.49 22.93 14.66L22.93 14.66L22.93 14.66Q22.51 14.83 22.05 14.83L22.05 14.83L22.05 14.83Q21.47 14.83 21.04 14.67L21.04 14.67L21.04 14.67Q20.60 14.51 20.35 14.27L20.35 14.27L20.35 14.27Q20.09 14.02 19.94 13.65L19.94 13.65L19.94 13.65Q19.78 13.29 19.73 12.93L19.73 12.93L19.73 12.93Q19.67 12.56 19.67 12.13L19.67 12.13L19.67 9.82L19.67 9.82Q19.67 9.22 19.41 8.85L19.41 8.85L19.41 8.85Q19.14 8.48 18.64 8.48L18.64 8.48L18.58 8.48L18.58 8.48Q18.37 8.48 18.37 8.28ZM27.82 14.43L27.82 14.43L27.82 14.01L27.82 14.01Q27.82 13.80 28.03 13.80L28.03 13.80L28.06 13.80L28.06 13.80Q28.55 13.80 28.82 13.43L28.82 13.43L28.82 13.43Q29.08 13.06 29.08 12.47L29.08 12.47L29.08 10.71L29.08 10.71Q29.08 10.37 29.06 10.14L29.06 10.14L29.06 10.14Q29.03 9.92 28.96 9.67L28.96 9.67L28.96 9.67Q28.88 9.41 28.70 9.27L28.70 9.27L28.70 9.27Q28.53 9.13 28.25 9.10L28.25 9.10L28.25 9.10Q28.08 9.08 28.09 8.92L28.09 8.92L28.09 8.44L28.09 8.44Q28.09 8.29 28.29 8.26L28.29 8.26L28.29 8.26Q29.18 8.11 29.94 7.81L29.94 7.81L29.94 7.81Q30.70 7.50 31.06 7.24L31.06 7.24L31.06 7.24Q31.11 7.21 31.12 7.21L31.12 7.21L31.16 7.21L31.16 7.21Q31.17 7.21 31.17 7.23L31.17 7.23L30.84 9.11L30.84 9.11Q31.22 8.32 31.88 7.89L31.88 7.89L31.88 7.89Q32.54 7.46 33.30 7.46L33.30 7.46L33.30 7.46Q34.00 7.46 34.44 7.84L34.44 7.84L34.44 7.84Q34.89 8.22 34.89 8.91L34.89 8.91L34.89 8.91Q34.89 9.28 34.82 9.49L34.82 9.49L34.82 9.49Q34.75 9.70 34.52 9.80L34.52 9.80L33.21 10.34L33.21 10.34Q33.15 10.36 33.09 10.36L33.09 10.36L33.09 10.36Q32.96 10.36 32.96 10.23L32.96 10.23L32.96 10.23Q32.96 10.16 32.98 10.10L32.98 10.10L32.98 10.10Q33.11 9.79 33.11 9.41L33.11 9.41L33.11 9.41Q33.11 9.04 32.93 8.86L32.93 8.86L32.93 8.86Q32.75 8.68 32.45 8.68L32.45 8.68L32.45 8.68Q32.01 8.68 31.62 9.06L31.62 9.06L31.62 9.06Q31.23 9.44 31.05 9.89L31.05 9.89L31.05 12.47L31.05 12.47Q31.05 13.06 31.32 13.43L31.32 13.43L31.32 13.43Q31.58 13.80 32.07 13.80L32.07 13.80L32.10 13.80L32.10 13.80Q32.31 13.80 32.31 14.01L32.31 14.01L32.31 14.43L32.31 14.43Q32.31 14.64 32.10 14.64L32.10 14.64L28.03 14.64L28.03 14.64Q27.82 14.64 27.82 14.43ZM34.97 12.33L34.97 12.33L34.97 12.33Q34.97 12.22 35.09 12.15L35.09 12.15L35.52 11.90L35.52 11.90Q35.57 11.87 35.64 11.87L35.64 11.87L35.64 11.87Q35.75 11.87 35.81 11.98L35.81 11.98L35.81 11.98Q37.04 13.87 38.98 13.87L38.98 13.87L38.98 13.87Q40.33 13.87 40.33 13.07L40.33 13.07L40.33 13.07Q40.33 12.95 40.29 12.85L40.29 12.85L40.29 12.85Q40.25 12.74 40.16 12.65L40.16 12.65L40.16 12.65Q40.07 12.56 39.99 12.49L39.99 12.49L39.99 12.49Q39.91 12.41 39.75 12.34L39.75 12.34L39.75 12.34Q39.59 12.26 39.48 12.22L39.48 12.22L39.48 12.22Q39.38 12.17 39.17 12.10L39.17 12.10L39.17 12.10Q38.96 12.04 38.85 12.00L38.85 12.00L38.85 12.00Q38.75 11.97 38.52 11.90L38.52 11.90L38.52 11.90Q38.29 11.84 38.20 11.81L38.20 11.81L38.20 11.81Q37.53 11.61 37.04 11.39L37.04 11.39L37.04 11.39Q36.56 11.16 36.27 10.93L36.27 10.93L36.27 10.93Q35.98 10.71 35.81 10.44L35.81 10.44L35.81 10.44Q35.64 10.17 35.58 9.93L35.58 9.93L35.58 9.93Q35.53 9.69 35.53 9.39L35.53 9.39L35.53 9.39Q35.53 8.54 36.19 8.00L36.19 8.00L36.19 8.00Q36.85 7.47 37.93 7.47L37.93 7.47L37.93 7.47Q38.51 7.47 39.01 7.62L39.01 7.62L39.01 7.62Q39.52 7.77 39.79 7.93L39.79 7.93L39.79 7.93Q39.83 7.95 39.85 7.95L39.85 7.95L39.85 7.95Q39.95 7.95 39.87 7.66L39.87 7.66L39.87 7.66Q39.85 7.59 39.85 7.56L39.85 7.56L39.85 7.56Q39.85 7.42 40.03 7.42L40.03 7.42L40.39 7.42L40.39 7.42Q40.57 7.42 40.63 7.58L40.63 7.58L41.34 9.36L41.34 9.36Q41.37 9.45 41.37 9.50L41.37 9.50L41.37 9.50Q41.37 9.59 41.26 9.65L41.26 9.65L40.92 9.83L40.92 9.83Q40.85 9.86 40.81 9.86L40.81 9.86L40.81 9.86Q40.72 9.86 40.63 9.75L40.63 9.75L40.63 9.75Q40.04 9.02 39.37 8.67L39.37 8.67L39.37 8.67Q38.69 8.32 38.12 8.32L38.12 8.32L38.12 8.32Q37.70 8.32 37.42 8.49L37.42 8.49L37.42 8.49Q37.15 8.66 37.15 9.03L37.15 9.03L37.15 9.03Q37.15 9.25 37.27 9.42L37.27 9.42L37.27 9.42Q37.40 9.60 37.65 9.72L37.65 9.72L37.65 9.72Q37.90 9.84 38.13 9.92L38.13 9.92L38.13 9.92Q38.36 10.00 38.71 10.09L38.71 10.09L38.71 10.09Q39.88 10.39 40.35 10.59L40.35 10.59L40.35 10.59Q41.71 11.16 41.86 12.26L41.86 12.26L41.86 12.26Q41.87 12.39 41.87 12.53L41.87 12.53L41.87 12.53Q41.87 13.53 41.07 14.17L41.07 14.17L41.07 14.17Q40.26 14.81 38.92 14.81L38.92 14.81L38.92 14.81Q38.04 14.81 37.30 14.44L37.30 14.44L37.30 14.44Q37.21 14.41 37.17 14.41L37.17 14.41L37.17 14.41Q37.04 14.41 37.11 14.62L37.11 14.62L37.11 14.62Q37.13 14.68 37.13 14.73L37.13 14.73L37.13 14.73Q37.13 14.85 36.96 14.84L36.96 14.84L36.46 14.84L36.46 14.84Q36.30 14.84 36.22 14.70L36.22 14.70L35.01 12.44L35.01 12.44Q34.97 12.37 34.97 12.33ZM42.43 11.08L42.43 11.08L42.43 11.08Q42.43 10.33 42.62 9.71L42.62 9.71L42.62 9.71Q42.81 9.10 43.13 8.69L43.13 8.69L43.13 8.69Q43.45 8.29 43.88 8.01L43.88 8.01L43.88 8.01Q44.32 7.73 44.79 7.61L44.79 7.61L44.79 7.61Q45.25 7.49 45.77 7.49L45.77 7.49L45.77 7.49Q46.30 7.49 46.77 7.67L46.77 7.67L46.77 7.67Q47.25 7.85 47.58 8.13L47.58 8.13L47.58 8.13Q47.92 8.42 48.16 8.78L48.16 8.78L48.16 8.78Q48.41 9.14 48.52 9.50L48.52 9.50L48.52 9.50Q48.64 9.86 48.64 10.19L48.64 10.19L48.64 10.19Q48.64 10.31 48.53 10.36L48.53 10.36L44.47 12.14L44.47 12.14Q44.73 12.79 45.27 13.22L45.27 13.22L45.27 13.22Q45.81 13.64 46.57 13.64L46.57 13.64L46.57 13.64Q47.04 13.64 47.52 13.38L47.52 13.38L47.52 13.38Q48.00 13.13 48.35 12.61L48.35 12.61L48.35 12.61Q48.39 12.55 48.47 12.55L48.47 12.55L48.47 12.55Q48.56 12.55 49.03 12.82L49.03 12.82L49.03 12.82Q49.08 12.86 49.08 12.93L49.08 12.93L49.08 12.93Q49.08 13.02 48.99 13.18L48.99 13.18L48.99 13.18Q48.11 14.81 46.19 14.81L46.19 14.81L46.19 14.81Q45.06 14.81 44.19 14.30L44.19 14.30L44.19 14.30Q43.33 13.79 42.88 12.94L42.88 12.94L42.88 12.94Q42.43 12.10 42.43 11.08ZM44.51 9.05L44.51 9.05L44.51 9.05Q44.17 9.50 44.17 10.20L44.17 10.20L44.17 10.20Q44.17 10.90 44.30 11.27L44.30 11.27L46.55 10.13L46.55 10.13Q46.55 9.47 46.23 9.03L46.23 9.03L46.23 9.03Q45.91 8.59 45.42 8.59L45.42 8.59L45.42 8.59Q44.86 8.59 44.51 9.05ZM49.71 9.50L49.71 9.50L49.71 9.50Q49.71 8.98 49.78 8.46L49.78 8.46L49.78 8.46Q49.85 7.94 50.03 7.39L50.03 7.39L50.03 7.39Q50.21 6.84 50.47 6.35L50.47 6.35L50.47 6.35Q50.74 5.87 51.15 5.42L51.15 5.42L51.15 5.42Q51.56 4.98 52.08 4.67L52.08 4.67L52.08 4.67Q52.60 4.35 53.32 4.17L53.32 4.17L53.32 4.17Q54.03 3.99 54.87 3.99L54.87 3.99L54.87 3.99Q55.58 3.99 56.26 4.16L56.26 4.16L56.26 4.16Q56.93 4.33 57.52 4.67L57.52 4.67L57.52 4.67Q58.12 5.02 58.55 5.60L58.55 5.60L58.55 5.60Q58.98 6.17 59.14 6.92L59.14 6.92L59.16 7.01L59.16 7.01Q59.16 7.22 58.91 7.28L58.91 7.28L57.12 7.90L57.12 7.90Q57.00 7.94 56.94 7.94L56.94 7.94L56.94 7.94Q56.77 7.94 56.79 7.79L56.79 7.79L56.81 7.58L56.82 7.33L56.82 7.33Q56.82 7.01 56.76 6.71L56.76 6.71L56.76 6.71Q56.70 6.41 56.55 6.11L56.55 6.11L56.55 6.11Q56.40 5.81 56.17 5.59L56.17 5.59L56.17 5.59Q55.95 5.37 55.58 5.23L55.58 5.23L55.58 5.23Q55.21 5.09 54.76 5.09L54.76 5.09L54.76 5.09Q54.28 5.09 53.87 5.26L53.87 5.26L53.87 5.26Q53.46 5.43 53.18 5.73L53.18 5.73L53.18 5.73Q52.90 6.02 52.68 6.40L52.68 6.40L52.68 6.40Q52.47 6.77 52.35 7.21L52.35 7.21L52.35 7.21Q52.23 7.65 52.17 8.07L52.17 8.07L52.17 8.07Q52.10 8.48 52.10 8.89L52.10 8.89L52.10 8.89Q52.10 10.28 52.42 11.29L52.42 11.29L52.42 11.29Q52.74 12.30 53.43 12.88L53.43 12.88L53.43 12.88Q54.12 13.47 55.14 13.47L55.14 13.47L55.14 13.47Q55.73 13.47 56.24 13.32L56.24 13.32L56.24 13.32Q56.75 13.18 57.10 12.96L57.10 12.96L57.10 12.96Q57.45 12.74 57.74 12.42L57.74 12.42L57.74 12.42Q58.03 12.10 58.20 11.82L58.20 11.82L58.20 11.82Q58.37 11.53 58.53 11.19L58.53 11.19L58.53 11.19Q58.61 11.01 58.77 11.01L58.77 11.01L58.77 11.01Q58.85 11.01 58.95 11.06L58.95 11.06L59.44 11.29L59.44 11.29Q59.56 11.34 59.61 11.40L59.61 11.40L59.61 11.40Q59.65 11.46 59.60 11.57L59.60 11.57L59.60 11.57Q59.41 12.04 59.15 12.47L59.15 12.47L59.15 12.47Q58.88 12.89 58.47 13.33L58.47 13.33L58.47 13.33Q58.06 13.76 57.57 14.07L57.57 14.07L57.57 14.07Q57.07 14.38 56.39 14.58L56.39 14.58L56.39 14.58Q55.70 14.78 54.92 14.78L54.92 14.78L54.92 14.78Q53.68 14.78 52.69 14.38L52.69 14.38L52.69 14.38Q51.69 13.98 51.05 13.27L51.05 13.27L51.05 13.27Q50.40 12.56 50.06 11.60L50.06 11.60L50.06 11.60Q49.71 10.64 49.71 9.50ZM60.25 11.07L60.25 11.07L60.25 11.07Q60.25 10.01 60.81 9.11L60.81 9.11L60.81 9.11Q61.37 8.20 62.34 7.77L62.34 7.77L62.34 7.77Q63.01 7.47 63.75 7.47L63.75 7.47L63.75 7.47Q64.81 7.47 65.73 8.07L65.73 8.07L65.73 8.07Q66.65 8.66 67.11 9.69L67.11 9.69L67.11 9.69Q67.44 10.41 67.44 11.22L67.44 11.22L67.44 11.22Q67.44 12.28 66.88 13.17L66.88 13.17L66.88 13.17Q66.32 14.07 65.34 14.51L65.34 14.51L65.34 14.51Q64.65 14.81 63.92 14.81L63.92 14.81L63.92 14.81Q62.86 14.81 61.94 14.22L61.94 14.22L61.94 14.22Q61.02 13.62 60.57 12.60L60.57 12.60L60.57 12.60Q60.25 11.87 60.25 11.07ZM61.91 10.19L61.91 10.19L61.91 10.19Q61.91 10.96 62.30 11.83L62.30 11.83L62.30 11.83Q62.67 12.63 63.21 13.16L63.21 13.16L63.21 13.16Q63.75 13.69 64.35 13.69L64.35 13.69L64.35 13.69Q64.63 13.69 64.91 13.57L64.91 13.57L64.91 13.57Q65.76 13.20 65.76 12.09L65.76 12.09L65.76 12.09Q65.76 11.33 65.37 10.46L65.37 10.46L65.37 10.46Q65.01 9.65 64.47 9.12L64.47 9.12L64.47 9.12Q63.92 8.59 63.31 8.59L63.31 8.59L63.31 8.59Q63.04 8.59 62.75 8.72L62.75 8.72L62.75 8.72Q61.91 9.08 61.91 10.19ZM67.93 14.43L67.93 14.43L67.93 14.01L67.93 14.01Q67.93 13.80 68.13 13.80L68.13 13.80L68.17 13.80L68.17 13.80Q68.66 13.80 68.92 13.43L68.92 13.43L68.92 13.43Q69.18 13.06 69.18 12.47L69.18 12.47L69.18 10.71L69.18 10.71Q69.18 10.37 69.16 10.14L69.16 10.14L69.16 10.14Q69.13 9.92 69.06 9.67L69.06 9.67L69.06 9.67Q68.98 9.41 68.80 9.27L68.80 9.27L68.80 9.27Q68.63 9.13 68.35 9.10L68.35 9.10L68.35 9.10Q68.17 9.08 68.19 8.92L68.19 8.92L68.19 8.44L68.19 8.44Q68.19 8.29 68.39 8.26L68.39 8.26L68.39 8.26Q69.29 8.11 70.04 7.81L70.04 7.81L70.04 7.81Q70.80 7.51 71.16 7.24L71.16 7.24L71.16 7.24Q71.22 7.21 71.22 7.21L71.22 7.21L71.26 7.21L71.26 7.21Q71.27 7.21 71.27 7.23L71.27 7.23L71.03 9.06L71.03 9.06Q72.03 7.46 73.45 7.46L73.45 7.46L73.45 7.46Q75.25 7.46 75.67 8.83L75.67 8.83L75.67 8.83Q76.73 7.46 78.24 7.46L78.24 7.46L78.24 7.46Q78.83 7.46 79.26 7.62L79.26 7.62L79.26 7.62Q79.69 7.77 79.95 8.02L79.95 8.02L79.95 8.02Q80.21 8.27 80.36 8.64L80.36 8.64L80.36 8.64Q80.51 9.00 80.57 9.37L80.57 9.37L80.57 9.37Q80.62 9.73 80.62 10.17L80.62 10.17L80.62 12.47L80.62 12.47Q80.62 13.06 80.89 13.43L80.89 13.43L80.89 13.43Q81.16 13.80 81.66 13.80L81.66 13.80L81.79 13.80L81.79 13.80Q82.00 13.80 82.00 14.01L82.00 14.01L82.00 14.43L82.00 14.43Q82.00 14.64 81.79 14.64L81.79 14.64L77.85 14.64L77.85 14.64Q77.64 14.64 77.64 14.43L77.64 14.43L77.64 14.01L77.64 14.01Q77.64 13.80 77.85 13.80L77.85 13.80L77.92 13.80L77.92 13.80Q78.35 13.80 78.50 13.49L78.50 13.49L78.50 13.49Q78.65 13.18 78.65 12.47L78.65 12.47L78.65 10.36L78.65 10.36Q78.65 10.32 78.65 10.23L78.65 10.23L78.65 10.23Q78.65 9.99 78.65 9.86L78.65 9.86L78.65 9.86Q78.65 9.73 78.62 9.51L78.62 9.51L78.62 9.51Q78.60 9.30 78.53 9.18L78.53 9.18L78.53 9.18Q78.47 9.06 78.36 8.94L78.36 8.94L78.36 8.94Q78.26 8.81 78.08 8.75L78.08 8.75L78.08 8.75Q77.90 8.70 77.65 8.70L77.65 8.70L77.65 8.70Q77.08 8.70 76.61 9.05L76.61 9.05L76.61 9.05Q76.15 9.41 75.83 10.02L75.83 10.02L75.83 12.47L75.83 12.47Q75.83 13.21 76.06 13.50L76.06 13.50L76.06 13.50Q76.28 13.80 76.72 13.80L76.72 13.80L76.83 13.80L76.83 13.80Q77.03 13.80 77.03 14.01L77.03 14.01L77.03 14.43L77.03 14.43Q77.03 14.64 76.83 14.64L76.83 14.64L73.03 14.64L73.03 14.64Q72.82 14.64 72.82 14.43L72.82 14.43L72.82 14.01L72.82 14.01Q72.82 13.80 73.03 13.80L73.03 13.80L73.12 13.80L73.12 13.80Q73.46 13.80 73.66 13.49L73.66 13.49L73.66 13.49Q73.86 13.19 73.86 12.52L73.86 12.52L73.86 12.52Q73.86 12.50 73.86 12.47L73.86 12.47L73.86 10.36L73.86 10.36Q73.86 10.32 73.86 10.23L73.86 10.23L73.86 10.23Q73.86 9.95 73.86 9.81L73.86 9.81L73.86 9.81Q73.86 9.68 73.83 9.46L73.83 9.46L73.83 9.46Q73.80 9.24 73.74 9.14L73.74 9.14L73.74 9.14Q73.68 9.03 73.57 8.91L73.57 8.91L73.57 8.91Q73.46 8.79 73.28 8.74L73.28 8.74L73.28 8.74Q73.10 8.70 72.85 8.70L72.85 8.70L72.85 8.70Q72.34 8.70 71.84 9.06L71.84 9.06L71.84 9.06Q71.33 9.43 71.15 9.89L71.15 9.89L71.15 12.47L71.15 12.47Q71.15 13.05 71.39 13.43L71.39 13.43L71.39 13.43Q71.63 13.80 72.04 13.80L72.04 13.80L72.08 13.80L72.08 13.80Q72.28 13.80 72.28 14.01L72.28 14.01L72.28 14.43L72.28 14.43Q72.28 14.64 72.08 14.64L72.08 14.64L68.13 14.64L68.13 14.64Q67.93 14.64 67.93 14.43ZM81.87 17.23L81.87 16.81L81.87 16.81Q81.87 16.60 82.09 16.60L82.09 16.60L82.09 16.60Q82.59 16.60 82.85 16.24L82.85 16.24L82.85 16.24Q83.10 15.89 83.10 15.33L83.10 15.33L83.10 15.33Q83.10 15.30 83.10 15.27L83.10 15.27L83.11 15.00L83.11 10.46L83.11 10.46Q83.11 10.19 83.10 10.01L83.10 10.01L83.10 10.01Q83.09 9.82 83.04 9.60L83.04 9.60L83.04 9.60Q83.00 9.37 82.91 9.23L82.91 9.23L82.91 9.23Q82.82 9.09 82.67 8.98L82.67 8.98L82.67 8.98Q82.51 8.87 82.28 8.85L82.28 8.85L82.28 8.85Q82.11 8.83 82.12 8.67L82.12 8.67L82.12 8.20L82.12 8.20Q82.12 8.01 82.33 8.01L82.33 8.01L82.33 8.01Q82.97 8.01 83.49 7.92L83.49 7.92L83.49 7.92Q84.01 7.83 84.23 7.75L84.23 7.75L84.23 7.75Q84.46 7.66 84.90 7.47L84.90 7.47L84.90 7.47Q84.95 7.44 85.01 7.44L85.01 7.44L85.05 7.44L85.05 7.44Q85.07 7.44 85.06 7.49L85.06 7.49L84.91 8.74L84.91 8.74Q84.96 8.60 85.05 8.46L85.05 8.46L85.05 8.46Q85.13 8.31 85.31 8.12L85.31 8.12L85.31 8.12Q85.49 7.93 85.71 7.79L85.71 7.79L85.71 7.79Q85.93 7.65 86.28 7.55L86.28 7.55L86.28 7.55Q86.63 7.44 87.04 7.44L87.04 7.44L87.04 7.44Q87.44 7.44 87.85 7.56L87.85 7.56L87.85 7.56Q88.27 7.68 88.68 7.97L88.68 7.97L88.68 7.97Q89.10 8.25 89.42 8.66L89.42 8.66L89.42 8.66Q89.74 9.08 89.94 9.72L89.94 9.72L89.94 9.72Q90.15 10.36 90.15 11.14L90.15 11.14L90.15 11.14Q90.15 12.07 89.88 12.80L89.88 12.80L89.88 12.80Q89.61 13.52 89.14 13.95L89.14 13.95L89.14 13.95Q88.68 14.38 88.11 14.60L88.11 14.60L88.11 14.60Q87.53 14.81 86.88 14.81L86.88 14.81L86.88 14.81Q85.81 14.81 85.06 14.16L85.06 14.16L85.06 15.27L85.06 15.27Q85.06 15.87 85.33 16.24L85.33 16.24L85.33 16.24Q85.59 16.60 86.09 16.60L86.09 16.60L86.09 16.60Q86.30 16.60 86.30 16.81L86.30 16.81L86.30 17.23L86.30 17.23Q86.30 17.45 86.09 17.45L86.09 17.45L82.08 17.45L82.08 17.45Q81.87 17.45 81.87 17.23L81.87 17.23ZM85.06 9.60L85.06 12.15L85.06 12.15Q85.14 12.87 85.56 13.38L85.56 13.38L85.56 13.38Q85.97 13.90 86.63 13.90L86.63 13.90L86.63 13.90Q87.01 13.90 87.32 13.77L87.32 13.77L87.32 13.77Q87.63 13.64 87.82 13.42L87.82 13.42L87.82 13.42Q88.01 13.21 88.13 12.90L88.13 12.90L88.13 12.90Q88.25 12.60 88.30 12.28L88.30 12.28L88.30 12.28Q88.35 11.96 88.35 11.59L88.35 11.59L88.35 11.59Q88.35 10.26 87.81 9.47L87.81 9.47L87.81 9.47Q87.28 8.68 86.41 8.68L86.41 8.68L86.41 8.68Q86.12 8.68 85.87 8.78L85.87 8.78L85.87 8.78Q85.63 8.87 85.48 9.01L85.48 9.01L85.48 9.01Q85.34 9.15 85.24 9.28L85.24 9.28L85.24 9.28Q85.13 9.41 85.09 9.51L85.09 9.51L85.06 9.60ZM90.98 11.13L90.98 11.13L90.98 11.13Q90.98 10.19 91.25 9.47L91.25 9.47L91.25 9.47Q91.52 8.75 91.98 8.32L91.98 8.32L91.98 8.32Q92.45 7.90 93.02 7.68L93.02 7.68L93.02 7.68Q93.60 7.46 94.25 7.46L94.25 7.46L94.25 7.46Q95.63 7.46 96.52 8.28L96.52 8.28L96.52 8.28Q96.69 8.21 96.83 8.15L96.83 8.15L96.83 8.15Q96.97 8.08 97.09 8.01L97.09 8.01L97.09 8.01Q97.22 7.94 97.30 7.90L97.30 7.90L97.30 7.90Q97.38 7.85 97.49 7.78L97.49 7.78L97.49 7.78Q97.60 7.71 97.64 7.69L97.64 7.69L97.64 7.69Q97.68 7.66 97.79 7.58L97.79 7.58L97.79 7.58Q97.90 7.50 97.91 7.49L97.91 7.49L97.91 7.49Q97.95 7.46 97.97 7.46L97.97 7.46L98.01 7.46L98.01 7.46Q98.02 7.46 98.02 7.49L98.02 7.49L98.02 12.05L98.02 12.05Q98.03 12.34 98.06 12.54L98.06 12.54L98.06 12.54Q98.10 12.75 98.18 12.95L98.18 12.95L98.18 12.95Q98.27 13.15 98.43 13.27L98.43 13.27L98.43 13.27Q98.60 13.39 98.85 13.42L98.85 13.42L98.85 13.42Q99.03 13.44 99.01 13.60L99.01 13.60L99.01 14.08L99.01 14.08Q99.01 14.26 98.81 14.26L98.81 14.26L98.81 14.26Q98.16 14.26 97.65 14.35L97.65 14.35L97.65 14.35Q97.13 14.44 96.89 14.53L96.89 14.53L96.89 14.53Q96.65 14.62 96.23 14.80L96.23 14.80L96.23 14.80Q96.17 14.83 96.11 14.83L96.11 14.83L96.08 14.83L96.08 14.83Q96.06 14.83 96.06 14.78L96.06 14.78L96.22 13.54L96.22 13.54Q96.15 13.72 96.02 13.90L96.02 13.90L96.02 13.90Q95.89 14.09 95.65 14.31L95.65 14.31L95.65 14.31Q95.40 14.54 95.00 14.68L95.00 14.68L95.00 14.68Q94.59 14.83 94.08 14.83L94.08 14.83L94.08 14.83Q93.69 14.83 93.27 14.71L93.27 14.71L93.27 14.71Q92.86 14.59 92.44 14.30L92.44 14.30L92.44 14.30Q92.03 14.01 91.70 13.60L91.70 13.60L91.70 13.60Q91.38 13.19 91.18 12.55L91.18 12.55L91.18 12.55Q90.98 11.91 90.98 11.13ZM92.78 10.68L92.78 10.68L92.78 10.68Q92.78 12.01 93.32 12.80L93.32 12.80L93.32 12.80Q93.85 13.59 94.72 13.59L94.72 13.59L94.72 13.59Q95.01 13.59 95.26 13.49L95.26 13.49L95.26 13.49Q95.50 13.40 95.64 13.27L95.64 13.27L95.64 13.27Q95.79 13.13 95.89 13.00L95.89 13.00L95.89 13.00Q95.99 12.86 96.03 12.76L96.03 12.76L96.07 12.67L96.07 9.86L96.07 9.86Q96.02 9.61 95.93 9.39L95.93 9.39L95.93 9.39Q95.83 9.16 95.66 8.92L95.66 8.92L95.66 8.92Q95.49 8.68 95.19 8.54L95.19 8.54L95.19 8.54Q94.90 8.39 94.51 8.39L94.51 8.39L94.51 8.39Q94.12 8.39 93.81 8.52L93.81 8.52L93.81 8.52Q93.50 8.65 93.31 8.87L93.31 8.87L93.31 8.87Q93.13 9.08 93.00 9.38L93.00 9.38L93.00 9.38Q92.88 9.68 92.83 9.99L92.83 9.99L92.83 9.99Q92.78 10.31 92.78 10.68ZM99.26 12.33L99.26 12.33L99.26 12.33Q99.26 12.22 99.38 12.15L99.38 12.15L99.81 11.90L99.81 11.90Q99.86 11.87 99.93 11.87L99.93 11.87L99.93 11.87Q100.04 11.87 100.10 11.98L100.10 11.98L100.10 11.98Q101.34 13.87 103.27 13.87L103.27 13.87L103.27 13.87Q104.62 13.87 104.62 13.07L104.62 13.07L104.62 13.07Q104.62 12.95 104.58 12.85L104.58 12.85L104.58 12.85Q104.54 12.74 104.45 12.65L104.45 12.65L104.45 12.65Q104.36 12.56 104.28 12.49L104.28 12.49L104.28 12.49Q104.20 12.41 104.04 12.34L104.04 12.34L104.04 12.34Q103.88 12.26 103.77 12.22L103.77 12.22L103.77 12.22Q103.67 12.17 103.46 12.10L103.46 12.10L103.46 12.10Q103.25 12.04 103.14 12.00L103.14 12.00L103.14 12.00Q103.04 11.97 102.81 11.90L102.81 11.90L102.81 11.90Q102.58 11.84 102.49 11.81L102.49 11.81L102.49 11.81Q101.82 11.61 101.34 11.39L101.34 11.39L101.34 11.39Q100.85 11.16 100.56 10.93L100.56 10.93L100.56 10.93Q100.28 10.71 100.11 10.44L100.11 10.44L100.11 10.44Q99.93 10.17 99.88 9.93L99.88 9.93L99.88 9.93Q99.82 9.69 99.82 9.39L99.82 9.39L99.82 9.39Q99.82 8.54 100.48 8.00L100.48 8.00L100.48 8.00Q101.14 7.47 102.22 7.47L102.22 7.47L102.22 7.47Q102.80 7.47 103.30 7.62L103.30 7.62L103.30 7.62Q103.81 7.77 104.08 7.93L104.08 7.93L104.08 7.93Q104.12 7.95 104.14 7.95L104.14 7.95L104.14 7.95Q104.24 7.95 104.16 7.66L104.16 7.66L104.16 7.66Q104.15 7.59 104.15 7.56L104.15 7.56L104.15 7.56Q104.15 7.42 104.32 7.42L104.32 7.42L104.69 7.42L104.69 7.42Q104.86 7.42 104.92 7.58L104.92 7.58L105.63 9.36L105.63 9.36Q105.66 9.45 105.66 9.50L105.66 9.50L105.66 9.50Q105.66 9.59 105.55 9.65L105.55 9.65L105.21 9.83L105.21 9.83Q105.14 9.86 105.10 9.86L105.10 9.86L105.10 9.86Q105.01 9.86 104.92 9.75L104.92 9.75L104.92 9.75Q104.34 9.02 103.66 8.67L103.66 8.67L103.66 8.67Q102.98 8.32 102.42 8.32L102.42 8.32L102.42 8.32Q101.99 8.32 101.72 8.49L101.72 8.49L101.72 8.49Q101.44 8.66 101.44 9.03L101.44 9.03L101.44 9.03Q101.44 9.25 101.56 9.42L101.56 9.42L101.56 9.42Q101.69 9.60 101.94 9.72L101.94 9.72L101.94 9.72Q102.19 9.84 102.42 9.92L102.42 9.92L102.42 9.92Q102.65 10.00 103.00 10.09L103.00 10.09L103.00 10.09Q104.17 10.39 104.64 10.59L104.64 10.59L104.64 10.59Q106.00 11.16 106.15 12.26L106.15 12.26L106.15 12.26Q106.16 12.39 106.16 12.53L106.16 12.53L106.16 12.53Q106.16 13.53 105.36 14.17L105.36 14.17L105.36 14.17Q104.56 14.81 103.21 14.81L103.21 14.81L103.21 14.81Q102.33 14.81 101.59 14.44L101.59 14.44L101.59 14.44Q101.51 14.41 101.47 14.41L101.47 14.41L101.47 14.41Q101.34 14.41 101.40 14.62L101.40 14.62L101.40 14.62Q101.42 14.68 101.42 14.73L101.42 14.73L101.42 14.73Q101.42 14.85 101.25 14.84L101.25 14.84L100.75 14.84L100.75 14.84Q100.59 14.84 100.51 14.70L100.51 14.70L99.30 12.44L99.30 12.44Q99.26 12.37 99.26 12.33ZM106.61 12.33L106.61 12.33L106.61 12.33Q106.61 12.22 106.73 12.15L106.73 12.15L107.16 11.90L107.16 11.90Q107.21 11.87 107.28 11.87L107.28 11.87L107.28 11.87Q107.39 11.87 107.45 11.98L107.45 11.98L107.45 11.98Q108.68 13.87 110.62 13.87L110.62 13.87L110.62 13.87Q111.97 13.87 111.97 13.07L111.97 13.07L111.97 13.07Q111.97 12.95 111.93 12.85L111.93 12.85L111.93 12.85Q111.89 12.74 111.80 12.65L111.80 12.65L111.80 12.65Q111.71 12.56 111.63 12.49L111.63 12.49L111.63 12.49Q111.55 12.41 111.39 12.34L111.39 12.34L111.39 12.34Q111.23 12.26 111.12 12.22L111.12 12.22L111.12 12.22Q111.02 12.17 110.81 12.10L110.81 12.10L110.81 12.10Q110.60 12.04 110.49 12.00L110.49 12.00L110.49 12.00Q110.39 11.97 110.16 11.90L110.16 11.90L110.16 11.90Q109.93 11.84 109.84 11.81L109.84 11.81L109.84 11.81Q109.17 11.61 108.68 11.39L108.68 11.39L108.68 11.39Q108.20 11.16 107.91 10.93L107.91 10.93L107.91 10.93Q107.63 10.71 107.45 10.44L107.45 10.44L107.45 10.44Q107.28 10.17 107.23 9.93L107.23 9.93L107.23 9.93Q107.17 9.69 107.17 9.39L107.17 9.39L107.17 9.39Q107.17 8.54 107.83 8.00L107.83 8.00L107.83 8.00Q108.49 7.47 109.57 7.47L109.57 7.47L109.57 7.47Q110.15 7.47 110.65 7.62L110.65 7.62L110.65 7.62Q111.16 7.77 111.43 7.93L111.43 7.93L111.43 7.93Q111.47 7.95 111.49 7.95L111.49 7.95L111.49 7.95Q111.59 7.95 111.51 7.66L111.51 7.66L111.51 7.66Q111.49 7.59 111.49 7.56L111.49 7.56L111.49 7.56Q111.49 7.42 111.67 7.42L111.67 7.42L112.03 7.42L112.03 7.42Q112.21 7.42 112.27 7.58L112.27 7.58L112.98 9.36L112.98 9.36Q113.01 9.45 113.01 9.50L113.01 9.50L113.01 9.50Q113.01 9.59 112.90 9.65L112.90 9.65L112.56 9.83L112.56 9.83Q112.49 9.86 112.45 9.86L112.45 9.86L112.45 9.86Q112.36 9.86 112.27 9.75L112.27 9.75L112.27 9.75Q111.69 9.02 111.01 8.67L111.01 8.67L111.01 8.67Q110.33 8.32 109.76 8.32L109.76 8.32L109.76 8.32Q109.34 8.32 109.06 8.49L109.06 8.49L109.06 8.49Q108.79 8.66 108.79 9.03L108.79 9.03L108.79 9.03Q108.79 9.25 108.91 9.42L108.91 9.42L108.91 9.42Q109.04 9.60 109.29 9.72L109.29 9.72L109.29 9.72Q109.54 9.84 109.77 9.92L109.77 9.92L109.77 9.92Q110.00 10.00 110.35 10.09L110.35 10.09L110.35 10.09Q111.52 10.39 111.99 10.59L111.99 10.59L111.99 10.59Q113.35 11.16 113.50 12.26L113.50 12.26L113.50 12.26Q113.51 12.39 113.51 12.53L113.51 12.53L113.51 12.53Q113.51 13.53 112.71 14.17L112.71 14.17L112.71 14.17Q111.90 14.81 110.56 14.81L110.56 14.81L110.56 14.81Q109.68 14.81 108.94 14.44L108.94 14.44L108.94 14.44Q108.86 14.41 108.81 14.41L108.81 14.41L108.81 14.41Q108.68 14.41 108.75 14.62L108.75 14.62L108.75 14.62Q108.77 14.68 108.77 14.73L108.77 14.73L108.77 14.73Q108.77 14.85 108.60 14.84L108.60 14.84L108.10 14.84L108.10 14.84Q107.94 14.84 107.86 14.70L107.86 14.70L106.65 12.44L106.65 12.44Q106.61 12.37 106.61 12.33Z"></path></g><!----><!----></svg>